<svg width="500" height="32" viewBox="0 0 500 32" fill="none" xmlns="http://www.w3.org/2000/svg">
<g opacity="0.5" clip-path="url(#clip0_5321_9090)">
<path d="M30.7806 18.0306L26.2806 22.5306C26.1757 22.6356 26.042 22.7072 25.8965 22.7361C25.7509 22.7651 25.6 22.7503 25.4629 22.6935C25.3258 22.6367 25.2086 22.5404 25.1262 22.417C25.0438 22.2935 24.9999 22.1484 25 22V18.25H16.75C16.5511 18.25 16.3603 18.171 16.2197 18.0303C16.079 17.8897 16 17.6989 16 17.5V4C16 3.80109 16.079 3.61032 16.2197 3.46967C16.3603 3.32902 16.5511 3.25 16.75 3.25C16.9489 3.25 17.1397 3.32902 17.2803 3.46967C17.421 3.61032 17.5 3.80109 17.5 4V16.75H25V13C24.9999 12.8516 25.0438 12.7065 25.1262 12.583C25.2086 12.4596 25.3258 12.3633 25.4629 12.3065C25.6 12.2497 25.7509 12.2349 25.8965 12.2639C26.042 12.2928 26.1757 12.3644 26.2806 12.4694L30.7806 16.9694C30.8504 17.039 30.9057 17.1217 30.9434 17.2128C30.9812 17.3038 31.0006 17.4014 31.0006 17.5C31.0006 17.5986 30.9812 17.6962 30.9434 17.7872C30.9057 17.8783 30.8504 17.961 30.7806 18.0306Z" fill="black"/>
</g>
<path opacity="0.5" d="M45.4347 23V8.45455H50.8892C52.0066 8.45455 52.9441 8.66288 53.7017 9.07955C54.464 9.49621 55.0393 10.0691 55.4276 10.7983C55.8205 11.5227 56.017 12.3466 56.017 13.2699C56.017 14.2027 55.8205 15.0312 55.4276 15.7557C55.0346 16.4801 54.4545 17.0507 53.6875 17.4673C52.9205 17.8793 51.9759 18.0852 50.8537 18.0852H47.2386V15.919H50.4986C51.152 15.919 51.687 15.8054 52.1037 15.5781C52.5204 15.3509 52.8281 15.0384 53.027 14.6406C53.2306 14.2429 53.3324 13.786 53.3324 13.2699C53.3324 12.7538 53.2306 12.2992 53.027 11.9062C52.8281 11.5133 52.518 11.2079 52.0966 10.9901C51.6799 10.7675 51.1425 10.6562 50.4844 10.6562H48.0696V23H45.4347ZM58.1921 23V12.0909H60.685V13.9091H60.7987C60.9975 13.2794 61.3384 12.794 61.8214 12.4531C62.3091 12.1075 62.8654 11.9347 63.4904 11.9347C63.6325 11.9347 63.7911 11.9418 63.9663 11.956C64.1462 11.9654 64.2953 11.982 64.4137 12.0057V14.3707C64.3048 14.3329 64.132 14.2997 63.8952 14.2713C63.6632 14.2382 63.4383 14.2216 63.2205 14.2216C62.7518 14.2216 62.3304 14.3234 61.9563 14.527C61.587 14.7259 61.2958 15.0028 61.0827 15.358C60.8697 15.7131 60.7631 16.1226 60.7631 16.5866V23H58.1921ZM70.4311 23.2131C69.3658 23.2131 68.4425 22.9787 67.6612 22.5099C66.88 22.0412 66.2739 21.3854 65.843 20.5426C65.4169 19.6998 65.2038 18.715 65.2038 17.5881C65.2038 16.4612 65.4169 15.474 65.843 14.6264C66.2739 13.7789 66.88 13.1207 67.6612 12.652C68.4425 12.1832 69.3658 11.9489 70.4311 11.9489C71.4964 11.9489 72.4197 12.1832 73.201 12.652C73.9822 13.1207 74.5859 13.7789 75.0121 14.6264C75.4429 15.474 75.6584 16.4612 75.6584 17.5881C75.6584 18.715 75.4429 19.6998 75.0121 20.5426C74.5859 21.3854 73.9822 22.0412 73.201 22.5099C72.4197 22.9787 71.4964 23.2131 70.4311 23.2131ZM70.4453 21.1534C71.023 21.1534 71.5059 20.9948 71.8942 20.6776C72.2824 20.3556 72.5713 19.9247 72.7607 19.3849C72.9548 18.8452 73.0518 18.2438 73.0518 17.581C73.0518 16.9134 72.9548 16.3097 72.7607 15.7699C72.5713 15.2254 72.2824 14.7921 71.8942 14.4702C71.5059 14.1482 71.023 13.9872 70.4453 13.9872C69.8535 13.9872 69.361 14.1482 68.968 14.4702C68.5798 14.7921 68.2886 15.2254 68.0945 15.7699C67.9051 16.3097 67.8104 16.9134 67.8104 17.581C67.8104 18.2438 67.9051 18.8452 68.0945 19.3849C68.2886 19.9247 68.5798 20.3556 68.968 20.6776C69.361 20.9948 69.8535 21.1534 70.4453 21.1534ZM77.8406 27.0909V12.0909H80.369V13.8949H80.5181C80.6507 13.6297 80.8377 13.348 81.0792 13.0497C81.3207 12.7467 81.6474 12.4886 82.0593 12.2756C82.4712 12.0578 82.9968 11.9489 83.636 11.9489C84.4788 11.9489 85.2388 12.1643 85.9158 12.5952C86.5977 13.0213 87.1374 13.6534 87.5352 14.4915C87.9376 15.3248 88.1388 16.3475 88.1388 17.5597C88.1388 18.7576 87.9424 19.7756 87.5494 20.6136C87.1564 21.4517 86.6213 22.0909 85.9442 22.5312C85.2672 22.9716 84.5001 23.1918 83.6431 23.1918C83.0181 23.1918 82.4996 23.0876 82.0877 22.8793C81.6758 22.6709 81.3443 22.42 81.0934 22.1264C80.8472 21.8281 80.6554 21.5464 80.5181 21.2812H80.4116V27.0909H77.8406ZM80.3619 17.5455C80.3619 18.2509 80.4613 18.8688 80.6602 19.3991C80.8638 19.9295 81.1549 20.3437 81.5337 20.642C81.9173 20.9356 82.3813 21.0824 82.9258 21.0824C83.494 21.0824 83.9698 20.9309 84.3533 20.6278C84.7369 20.3201 85.0257 19.901 85.2198 19.3707C85.4187 18.8357 85.5181 18.2273 85.5181 17.5455C85.5181 16.8684 85.421 16.267 85.2269 15.7415C85.0328 15.2159 84.744 14.804 84.3604 14.5057C83.9769 14.2074 83.4987 14.0582 82.9258 14.0582C82.3765 14.0582 81.9102 14.2027 81.5266 14.4915C81.1431 14.7803 80.8519 15.1851 80.6531 15.706C80.4589 16.2268 80.3619 16.84 80.3619 17.5455ZM95.0991 23.2131C94.0337 23.2131 93.1104 22.9787 92.3292 22.5099C91.5479 22.0412 90.9419 21.3854 90.511 20.5426C90.0849 19.6998 89.8718 18.715 89.8718 17.5881C89.8718 16.4612 90.0849 15.474 90.511 14.6264C90.9419 13.7789 91.5479 13.1207 92.3292 12.652C93.1104 12.1832 94.0337 11.9489 95.0991 11.9489C96.1644 11.9489 97.0877 12.1832 97.869 12.652C98.6502 13.1207 99.2539 13.7789 99.68 14.6264C100.111 15.474 100.326 16.4612 100.326 17.5881C100.326 18.715 100.111 19.6998 99.68 20.5426C99.2539 21.3854 98.6502 22.0412 97.869 22.5099C97.0877 22.9787 96.1644 23.2131 95.0991 23.2131ZM95.1133 21.1534C95.6909 21.1534 96.1739 20.9948 96.5621 20.6776C96.9504 20.3556 97.2392 19.9247 97.4286 19.3849C97.6228 18.8452 97.7198 18.2438 97.7198 17.581C97.7198 16.9134 97.6228 16.3097 97.4286 15.7699C97.2392 15.2254 96.9504 14.7921 96.5621 14.4702C96.1739 14.1482 95.6909 13.9872 95.1133 13.9872C94.5214 13.9872 94.029 14.1482 93.636 14.4702C93.2478 14.7921 92.9566 15.2254 92.7624 15.7699C92.573 16.3097 92.4783 16.9134 92.4783 17.581C92.4783 18.2438 92.573 18.8452 92.7624 19.3849C92.9566 19.9247 93.2478 20.3556 93.636 20.6776C94.029 20.9948 94.5214 21.1534 95.1133 21.1534ZM111.131 14.9744L108.787 15.2301C108.721 14.9934 108.605 14.7708 108.439 14.5625C108.278 14.3542 108.06 14.1861 107.786 14.0582C107.511 13.9304 107.175 13.8665 106.777 13.8665C106.242 13.8665 105.792 13.9825 105.428 14.2145C105.068 14.4465 104.89 14.7472 104.895 15.1165C104.89 15.4337 105.006 15.6918 105.243 15.8906C105.484 16.0895 105.882 16.2528 106.436 16.3807L108.297 16.7784C109.329 17.0009 110.096 17.3537 110.598 17.8366C111.105 18.3196 111.36 18.9517 111.365 19.733C111.36 20.4195 111.159 21.0256 110.761 21.5511C110.368 22.072 109.821 22.4792 109.121 22.7727C108.42 23.0663 107.615 23.2131 106.706 23.2131C105.371 23.2131 104.296 22.9337 103.482 22.375C102.667 21.8116 102.182 21.0279 102.026 20.0241L104.533 19.7827C104.646 20.2751 104.888 20.6468 105.257 20.8977C105.626 21.1487 106.107 21.2741 106.699 21.2741C107.31 21.2741 107.8 21.1487 108.169 20.8977C108.543 20.6468 108.73 20.3366 108.73 19.9673C108.73 19.6548 108.609 19.3968 108.368 19.1932C108.131 18.9896 107.762 18.8333 107.26 18.7244L105.399 18.3338C104.353 18.116 103.579 17.7491 103.077 17.233C102.575 16.7121 102.326 16.054 102.331 15.2585C102.326 14.5862 102.509 14.0038 102.878 13.5114C103.252 13.0142 103.77 12.6307 104.433 12.3608C105.101 12.0862 105.87 11.9489 106.741 11.9489C108.02 11.9489 109.026 12.2211 109.76 12.7656C110.499 13.3101 110.955 14.0464 111.131 14.9744ZM116.624 23.2202C115.933 23.2202 115.31 23.0971 114.756 22.8509C114.207 22.5999 113.772 22.2306 113.45 21.7429C113.132 21.2552 112.974 20.6539 112.974 19.9389C112.974 19.3234 113.087 18.8144 113.315 18.4119C113.542 18.0095 113.852 17.6875 114.245 17.446C114.638 17.2045 115.081 17.0223 115.573 16.8991C116.07 16.7713 116.584 16.679 117.114 16.6222C117.754 16.5559 118.272 16.4967 118.67 16.4446C119.067 16.3878 119.356 16.3026 119.536 16.1889C119.721 16.0705 119.813 15.8883 119.813 15.642V15.5994C119.813 15.0644 119.655 14.6501 119.337 14.3565C119.02 14.063 118.563 13.9162 117.967 13.9162C117.337 13.9162 116.837 14.0535 116.468 14.3281C116.103 14.6027 115.857 14.9271 115.729 15.3011L113.329 14.9602C113.518 14.2973 113.831 13.7434 114.266 13.2983C114.702 12.8485 115.235 12.5123 115.864 12.2898C116.494 12.0625 117.19 11.9489 117.952 11.9489C118.478 11.9489 119.001 12.0104 119.522 12.1335C120.043 12.2566 120.519 12.4602 120.95 12.7443C121.38 13.0237 121.726 13.4048 121.987 13.8878C122.252 14.3707 122.384 14.9744 122.384 15.6989V23H119.913V21.5014H119.827C119.671 21.8045 119.451 22.0885 119.167 22.3537C118.888 22.6141 118.535 22.8248 118.109 22.9858C117.687 23.142 117.192 23.2202 116.624 23.2202ZM117.292 21.331C117.808 21.331 118.255 21.2292 118.634 21.0256C119.013 20.8172 119.304 20.5426 119.508 20.2017C119.716 19.8608 119.82 19.4891 119.82 19.0866V17.8011C119.74 17.8674 119.603 17.929 119.408 17.9858C119.219 18.0426 119.006 18.0923 118.769 18.1349C118.532 18.1776 118.298 18.2154 118.066 18.2486C117.834 18.2817 117.633 18.3101 117.462 18.3338C117.079 18.3859 116.736 18.4711 116.433 18.5895C116.129 18.7079 115.89 18.8736 115.715 19.0866C115.54 19.295 115.452 19.5649 115.452 19.8963C115.452 20.3698 115.625 20.7273 115.971 20.9688C116.317 21.2102 116.757 21.331 117.292 21.331ZM127.54 8.45455V23H124.969V8.45455H127.54ZM140.628 23L143.015 8.45455H145.003L142.617 23H140.628ZM134.073 19.25L134.407 17.2614H145.6L145.266 19.25H134.073ZM135.515 23L137.901 8.45455H139.89L137.503 23H135.515ZM134.918 14.1932L135.245 12.2045H146.438L146.111 14.1932H134.918ZM153.364 23.277C152.195 23.277 151.191 22.9811 150.353 22.3892C149.52 21.7926 148.878 20.9332 148.428 19.8111C147.983 18.6842 147.761 17.3277 147.761 15.7415C147.765 14.1553 147.99 12.8059 148.435 11.6932C148.885 10.5758 149.527 9.72348 150.36 9.13636C151.198 8.54924 152.2 8.25568 153.364 8.25568C154.529 8.25568 155.531 8.54924 156.369 9.13636C157.207 9.72348 157.848 10.5758 158.293 11.6932C158.743 12.8106 158.968 14.16 158.968 15.7415C158.968 17.3324 158.743 18.6913 158.293 19.8182C157.848 20.9403 157.207 21.7973 156.369 22.3892C155.535 22.9811 154.534 23.277 153.364 23.277ZM153.364 21.054C154.273 21.054 154.991 20.6065 155.516 19.7116C156.047 18.812 156.312 17.4886 156.312 15.7415C156.312 14.5862 156.191 13.6155 155.95 12.8295C155.708 12.0436 155.367 11.4517 154.927 11.054C154.487 10.6515 153.966 10.4503 153.364 10.4503C152.46 10.4503 151.745 10.9001 151.219 11.7997C150.694 12.6946 150.429 14.0085 150.424 15.7415C150.419 16.9015 150.535 17.8769 150.772 18.6676C151.013 19.4583 151.354 20.0549 151.795 20.4574C152.235 20.8551 152.758 21.054 153.364 21.054Z" fill="black"/>
<rect x="170.5" y="0.5" width="150" height="31" rx="5.5" stroke="#68CCAE" stroke-opacity="0.8"/>
<path d="M180.5 22V10.5781H182.375V20.4062H187.227V22H180.5ZM192.461 13.1875C193.232 13.1875 193.893 13.3464 194.445 13.6641C194.997 13.9818 195.422 14.4323 195.719 15.0156C196.016 15.599 196.164 16.2969 196.164 17.1094V18.0938H190.391C190.411 18.9323 190.635 19.5781 191.062 20.0312C191.495 20.4844 192.099 20.7109 192.875 20.7109C193.427 20.7109 193.922 20.6589 194.359 20.5547C194.802 20.4453 195.258 20.2865 195.727 20.0781V21.5703C195.294 21.7734 194.854 21.9219 194.406 22.0156C193.958 22.1094 193.422 22.1562 192.797 22.1562C191.948 22.1562 191.201 21.9922 190.555 21.6641C189.914 21.3307 189.411 20.8359 189.047 20.1797C188.688 19.5234 188.508 18.7083 188.508 17.7344C188.508 16.7656 188.672 15.9427 189 15.2656C189.328 14.5885 189.789 14.0729 190.383 13.7188C190.977 13.3646 191.669 13.1875 192.461 13.1875ZM192.461 14.5703C191.883 14.5703 191.414 14.7578 191.055 15.1328C190.701 15.5078 190.492 16.0573 190.43 16.7812H194.367C194.362 16.349 194.289 15.9661 194.148 15.6328C194.013 15.2995 193.805 15.0391 193.523 14.8516C193.247 14.6641 192.893 14.5703 192.461 14.5703ZM201.625 13.1875C202.719 13.1875 203.544 13.4297 204.102 13.9141C204.664 14.3984 204.945 15.1536 204.945 16.1797V22H203.641L203.289 20.7734H203.227C202.982 21.0859 202.729 21.3438 202.469 21.5469C202.208 21.75 201.906 21.901 201.562 22C201.224 22.1042 200.81 22.1562 200.32 22.1562C199.805 22.1562 199.344 22.0625 198.938 21.875C198.531 21.6823 198.211 21.3906 197.977 21C197.742 20.6094 197.625 20.1146 197.625 19.5156C197.625 18.625 197.956 17.9557 198.617 17.5078C199.284 17.0599 200.289 16.8125 201.633 16.7656L203.133 16.7109V16.2578C203.133 15.6589 202.992 15.2318 202.711 14.9766C202.435 14.7214 202.044 14.5938 201.539 14.5938C201.107 14.5938 200.688 14.6562 200.281 14.7812C199.875 14.9062 199.479 15.0599 199.094 15.2422L198.5 13.9453C198.922 13.7214 199.401 13.5391 199.938 13.3984C200.479 13.2578 201.042 13.1875 201.625 13.1875ZM203.125 17.8672L202.008 17.9062C201.091 17.9375 200.448 18.0938 200.078 18.375C199.708 18.6562 199.523 19.0417 199.523 19.5312C199.523 19.9583 199.651 20.2708 199.906 20.4688C200.161 20.6615 200.497 20.7578 200.914 20.7578C201.549 20.7578 202.076 20.5781 202.492 20.2188C202.914 19.8542 203.125 19.3203 203.125 18.6172V17.8672ZM210.422 22.1562C209.391 22.1562 208.562 21.7812 207.938 21.0312C207.318 20.276 207.008 19.1641 207.008 17.6953C207.008 16.2109 207.323 15.0885 207.953 14.3281C208.589 13.5677 209.424 13.1875 210.461 13.1875C210.898 13.1875 211.281 13.2474 211.609 13.3672C211.938 13.4818 212.219 13.638 212.453 13.8359C212.693 14.0339 212.896 14.2552 213.062 14.5H213.148C213.122 14.3385 213.091 14.1068 213.055 13.8047C213.023 13.4974 213.008 13.2135 213.008 12.9531V9.84375H214.852V22H213.414L213.086 20.8203H213.008C212.852 21.0703 212.654 21.2969 212.414 21.5C212.18 21.6979 211.898 21.8568 211.57 21.9766C211.247 22.0964 210.865 22.1562 210.422 22.1562ZM210.938 20.6641C211.724 20.6641 212.279 20.4375 212.602 19.9844C212.924 19.5312 213.091 18.8516 213.102 17.9453V17.7031C213.102 16.7344 212.945 15.9922 212.633 15.4766C212.32 14.9557 211.75 14.6953 210.922 14.6953C210.26 14.6953 209.755 14.9635 209.406 15.5C209.062 16.0312 208.891 16.7734 208.891 17.7266C208.891 18.6797 209.062 19.4089 209.406 19.9141C209.755 20.4141 210.266 20.6641 210.938 20.6641ZM219.32 13.3516V22H217.484V13.3516H219.32ZM218.414 10.0391C218.695 10.0391 218.938 10.1146 219.141 10.2656C219.349 10.4167 219.453 10.6771 219.453 11.0469C219.453 11.4115 219.349 11.6719 219.141 11.8281C218.938 11.9792 218.695 12.0547 218.414 12.0547C218.122 12.0547 217.875 11.9792 217.672 11.8281C217.474 11.6719 217.375 11.4115 217.375 11.0469C217.375 10.6771 217.474 10.4167 217.672 10.2656C217.875 10.1146 218.122 10.0391 218.414 10.0391ZM226.461 13.1875C227.435 13.1875 228.193 13.4401 228.734 13.9453C229.281 14.4453 229.555 15.25 229.555 16.3594V22H227.719V16.7031C227.719 16.0312 227.581 15.5286 227.305 15.1953C227.029 14.8568 226.602 14.6875 226.023 14.6875C225.185 14.6875 224.602 14.9453 224.273 15.4609C223.951 15.9766 223.789 16.724 223.789 17.7031V22H221.953V13.3516H223.383L223.641 14.5234H223.742C223.93 14.2214 224.161 13.974 224.438 13.7812C224.719 13.5833 225.031 13.4349 225.375 13.3359C225.724 13.237 226.086 13.1875 226.461 13.1875ZM234.594 25.8438C233.422 25.8438 232.523 25.6328 231.898 25.2109C231.273 24.7891 230.961 24.1979 230.961 23.4375C230.961 22.9062 231.128 22.4557 231.461 22.0859C231.794 21.7214 232.271 21.4688 232.891 21.3281C232.656 21.224 232.453 21.0625 232.281 20.8438C232.115 20.6198 232.031 20.3724 232.031 20.1016C232.031 19.7786 232.122 19.5026 232.305 19.2734C232.487 19.0443 232.76 18.8229 233.125 18.6094C232.672 18.4167 232.307 18.1042 232.031 17.6719C231.76 17.2344 231.625 16.7214 231.625 16.1328C231.625 15.5078 231.758 14.9766 232.023 14.5391C232.289 14.0964 232.677 13.7604 233.188 13.5312C233.698 13.2969 234.315 13.1797 235.039 13.1797C235.195 13.1797 235.365 13.1901 235.547 13.2109C235.734 13.2266 235.906 13.2474 236.062 13.2734C236.224 13.2943 236.346 13.3177 236.43 13.3438H239.422V14.3672L237.953 14.6406C238.094 14.8385 238.206 15.0651 238.289 15.3203C238.372 15.5703 238.414 15.8438 238.414 16.1406C238.414 17.0365 238.104 17.7422 237.484 18.2578C236.87 18.7682 236.021 19.0234 234.938 19.0234C234.677 19.013 234.424 18.9922 234.18 18.9609C233.992 19.0755 233.849 19.2031 233.75 19.3438C233.651 19.4792 233.602 19.6328 233.602 19.8047C233.602 19.9453 233.651 20.0599 233.75 20.1484C233.849 20.2318 233.995 20.2943 234.188 20.3359C234.385 20.3776 234.625 20.3984 234.906 20.3984H236.398C237.346 20.3984 238.07 20.599 238.57 21C239.07 21.401 239.32 21.9896 239.32 22.7656C239.32 23.75 238.914 24.5078 238.102 25.0391C237.289 25.5755 236.12 25.8438 234.594 25.8438ZM234.664 24.5547C235.305 24.5547 235.844 24.4922 236.281 24.3672C236.719 24.2422 237.049 24.0625 237.273 23.8281C237.497 23.599 237.609 23.3255 237.609 23.0078C237.609 22.7266 237.539 22.5104 237.398 22.3594C237.258 22.2083 237.047 22.1042 236.766 22.0469C236.484 21.9896 236.135 21.9609 235.719 21.9609H234.359C234.021 21.9609 233.721 22.013 233.461 22.1172C233.201 22.2266 232.997 22.3828 232.852 22.5859C232.711 22.7891 232.641 23.0339 232.641 23.3203C232.641 23.7161 232.815 24.0208 233.164 24.2344C233.518 24.4479 234.018 24.5547 234.664 24.5547ZM235.023 17.8203C235.56 17.8203 235.958 17.6745 236.219 17.3828C236.479 17.0859 236.609 16.6693 236.609 16.1328C236.609 15.5495 236.474 15.112 236.203 14.8203C235.938 14.5286 235.542 14.3828 235.016 14.3828C234.5 14.3828 234.107 14.5312 233.836 14.8281C233.57 15.125 233.438 15.5651 233.438 16.1484C233.438 16.6745 233.57 17.0859 233.836 17.3828C234.107 17.6745 234.503 17.8203 235.023 17.8203ZM248.664 10.5781C250.138 10.5781 251.214 10.8802 251.891 11.4844C252.568 12.0885 252.906 12.9349 252.906 14.0234C252.906 14.5182 252.828 14.9896 252.672 15.4375C252.521 15.8802 252.271 16.2734 251.922 16.6172C251.573 16.9557 251.112 17.224 250.539 17.4219C249.971 17.6198 249.271 17.7188 248.438 17.7188H247.219V22H245.344V10.5781H248.664ZM248.539 12.1328H247.219V16.1562H248.242C248.831 16.1562 249.331 16.0885 249.742 15.9531C250.154 15.8125 250.466 15.5911 250.68 15.2891C250.893 14.987 251 14.5885 251 14.0938C251 13.4323 250.799 12.9401 250.398 12.6172C250.003 12.2943 249.383 12.1328 248.539 12.1328ZM259.383 13.1875C259.529 13.1875 259.688 13.1953 259.859 13.2109C260.031 13.2266 260.18 13.2474 260.305 13.2734L260.133 14.9922C260.023 14.9609 259.888 14.9375 259.727 14.9219C259.57 14.9062 259.43 14.8984 259.305 14.8984C258.977 14.8984 258.664 14.9531 258.367 15.0625C258.07 15.1667 257.807 15.3281 257.578 15.5469C257.349 15.7604 257.169 16.0286 257.039 16.3516C256.909 16.6745 256.844 17.0495 256.844 17.4766V22H255V13.3516H256.438L256.688 14.875H256.773C256.945 14.5677 257.159 14.2865 257.414 14.0312C257.669 13.776 257.961 13.5729 258.289 13.4219C258.622 13.2656 258.987 13.1875 259.383 13.1875ZM269.562 17.6562C269.562 18.375 269.469 19.013 269.281 19.5703C269.094 20.1276 268.82 20.599 268.461 20.9844C268.102 21.3646 267.669 21.6562 267.164 21.8594C266.659 22.0573 266.089 22.1562 265.453 22.1562C264.859 22.1562 264.315 22.0573 263.82 21.8594C263.326 21.6562 262.896 21.3646 262.531 20.9844C262.172 20.599 261.893 20.1276 261.695 19.5703C261.497 19.013 261.398 18.375 261.398 17.6562C261.398 16.7031 261.562 15.8958 261.891 15.2344C262.224 14.5677 262.698 14.0599 263.312 13.7109C263.927 13.362 264.659 13.1875 265.508 13.1875C266.305 13.1875 267.008 13.362 267.617 13.7109C268.227 14.0599 268.703 14.5677 269.047 15.2344C269.391 15.901 269.562 16.7083 269.562 17.6562ZM263.289 17.6562C263.289 18.2865 263.365 18.8255 263.516 19.2734C263.672 19.7214 263.911 20.0651 264.234 20.3047C264.557 20.5391 264.974 20.6562 265.484 20.6562C265.995 20.6562 266.411 20.5391 266.734 20.3047C267.057 20.0651 267.294 19.7214 267.445 19.2734C267.596 18.8255 267.672 18.2865 267.672 17.6562C267.672 17.026 267.596 16.4922 267.445 16.0547C267.294 15.612 267.057 15.276 266.734 15.0469C266.411 14.8125 265.992 14.6953 265.477 14.6953C264.716 14.6953 264.161 14.9505 263.812 15.4609C263.464 15.9714 263.289 16.7031 263.289 17.6562ZM276.109 13.1875C277.135 13.1875 277.958 13.5625 278.578 14.3125C279.203 15.0625 279.516 16.1771 279.516 17.6562C279.516 18.6354 279.37 19.4609 279.078 20.1328C278.792 20.7995 278.388 21.3047 277.867 21.6484C277.352 21.987 276.75 22.1562 276.062 22.1562C275.625 22.1562 275.245 22.099 274.922 21.9844C274.599 21.8698 274.323 21.7214 274.094 21.5391C273.865 21.3516 273.672 21.1484 273.516 20.9297H273.406C273.432 21.138 273.456 21.3698 273.477 21.625C273.503 21.875 273.516 22.1042 273.516 22.3125V25.8359H271.672V13.3516H273.172L273.43 14.5469H273.516C273.677 14.3021 273.872 14.0755 274.102 13.8672C274.336 13.6589 274.617 13.4948 274.945 13.375C275.279 13.25 275.667 13.1875 276.109 13.1875ZM275.617 14.6875C275.112 14.6875 274.706 14.7891 274.398 14.9922C274.096 15.1901 273.875 15.4896 273.734 15.8906C273.599 16.2917 273.526 16.7943 273.516 17.3984V17.6562C273.516 18.2969 273.581 18.8411 273.711 19.2891C273.846 19.7318 274.068 20.0703 274.375 20.3047C274.688 20.5339 275.109 20.6484 275.641 20.6484C276.089 20.6484 276.458 20.526 276.75 20.2812C277.047 20.0365 277.268 19.6875 277.414 19.2344C277.56 18.7812 277.633 18.2474 277.633 17.6328C277.633 16.7005 277.466 15.9766 277.133 15.4609C276.805 14.9453 276.299 14.6875 275.617 14.6875ZM289.297 17.6562C289.297 18.375 289.203 19.013 289.016 19.5703C288.828 20.1276 288.555 20.599 288.195 20.9844C287.836 21.3646 287.404 21.6562 286.898 21.8594C286.393 22.0573 285.823 22.1562 285.188 22.1562C284.594 22.1562 284.049 22.0573 283.555 21.8594C283.06 21.6562 282.63 21.3646 282.266 20.9844C281.906 20.599 281.628 20.1276 281.43 19.5703C281.232 19.013 281.133 18.375 281.133 17.6562C281.133 16.7031 281.297 15.8958 281.625 15.2344C281.958 14.5677 282.432 14.0599 283.047 13.7109C283.661 13.362 284.393 13.1875 285.242 13.1875C286.039 13.1875 286.742 13.362 287.352 13.7109C287.961 14.0599 288.438 14.5677 288.781 15.2344C289.125 15.901 289.297 16.7083 289.297 17.6562ZM283.023 17.6562C283.023 18.2865 283.099 18.8255 283.25 19.2734C283.406 19.7214 283.646 20.0651 283.969 20.3047C284.292 20.5391 284.708 20.6562 285.219 20.6562C285.729 20.6562 286.146 20.5391 286.469 20.3047C286.792 20.0651 287.029 19.7214 287.18 19.2734C287.331 18.8255 287.406 18.2865 287.406 17.6562C287.406 17.026 287.331 16.4922 287.18 16.0547C287.029 15.612 286.792 15.276 286.469 15.0469C286.146 14.8125 285.727 14.6953 285.211 14.6953C284.451 14.6953 283.896 14.9505 283.547 15.4609C283.198 15.9714 283.023 16.7031 283.023 17.6562ZM297.219 19.5312C297.219 20.099 297.081 20.5781 296.805 20.9688C296.529 21.3594 296.125 21.6562 295.594 21.8594C295.068 22.0573 294.422 22.1562 293.656 22.1562C293.052 22.1562 292.531 22.112 292.094 22.0234C291.661 21.9401 291.253 21.8099 290.867 21.6328V20.0469C291.279 20.2396 291.74 20.4062 292.25 20.5469C292.766 20.6875 293.253 20.7578 293.711 20.7578C294.315 20.7578 294.75 20.6641 295.016 20.4766C295.281 20.2839 295.414 20.0286 295.414 19.7109C295.414 19.5234 295.359 19.3568 295.25 19.2109C295.146 19.0599 294.948 18.9062 294.656 18.75C294.37 18.5885 293.948 18.3958 293.391 18.1719C292.844 17.9531 292.383 17.7344 292.008 17.5156C291.633 17.2969 291.349 17.0339 291.156 16.7266C290.964 16.4141 290.867 16.0156 290.867 15.5312C290.867 14.7656 291.169 14.1849 291.773 13.7891C292.383 13.388 293.188 13.1875 294.188 13.1875C294.719 13.1875 295.219 13.2422 295.688 13.3516C296.161 13.4557 296.625 13.6094 297.078 13.8125L296.5 15.1953C296.109 15.0234 295.716 14.8828 295.32 14.7734C294.93 14.6589 294.531 14.6016 294.125 14.6016C293.651 14.6016 293.289 14.6745 293.039 14.8203C292.794 14.9661 292.672 15.1745 292.672 15.4453C292.672 15.6484 292.732 15.8203 292.852 15.9609C292.971 16.1016 293.177 16.2422 293.469 16.3828C293.766 16.5234 294.177 16.6979 294.703 16.9062C295.219 17.1042 295.664 17.3125 296.039 17.5312C296.419 17.7448 296.711 18.0078 296.914 18.3203C297.117 18.6328 297.219 19.0365 297.219 19.5312ZM302.594 13.1875C303.688 13.1875 304.513 13.4297 305.07 13.9141C305.633 14.3984 305.914 15.1536 305.914 16.1797V22H304.609L304.258 20.7734H304.195C303.951 21.0859 303.698 21.3438 303.438 21.5469C303.177 21.75 302.875 21.901 302.531 22C302.193 22.1042 301.779 22.1562 301.289 22.1562C300.773 22.1562 300.312 22.0625 299.906 21.875C299.5 21.6823 299.18 21.3906 298.945 21C298.711 20.6094 298.594 20.1146 298.594 19.5156C298.594 18.625 298.924 17.9557 299.586 17.5078C300.253 17.0599 301.258 16.8125 302.602 16.7656L304.102 16.7109V16.2578C304.102 15.6589 303.961 15.2318 303.68 14.9766C303.404 14.7214 303.013 14.5938 302.508 14.5938C302.076 14.5938 301.656 14.6562 301.25 14.7812C300.844 14.9062 300.448 15.0599 300.062 15.2422L299.469 13.9453C299.891 13.7214 300.37 13.5391 300.906 13.3984C301.448 13.2578 302.01 13.1875 302.594 13.1875ZM304.094 17.8672L302.977 17.9062C302.06 17.9375 301.417 18.0938 301.047 18.375C300.677 18.6562 300.492 19.0417 300.492 19.5312C300.492 19.9583 300.62 20.2708 300.875 20.4688C301.13 20.6615 301.466 20.7578 301.883 20.7578C302.518 20.7578 303.044 20.5781 303.461 20.2188C303.883 19.8542 304.094 19.3203 304.094 18.6172V17.8672ZM310.328 22H308.484V9.84375H310.328V22Z" fill="#40A486"/>
<defs>
<clipPath id="clip0_5321_9090">
<rect width="24" height="24" fill="white" transform="translate(10 1)"/>
</clipPath>
</defs>
</svg>
