<svg width="28" height="28" viewBox="0 0 28 28" fill="none" xmlns="http://www.w3.org/2000/svg">
<g clip-path="url(#clip0_5321_9029)">
<path d="M11.375 7.00019C11.3747 6.34565 11.1908 5.70431 10.8443 5.14902C10.4978 4.59373 10.0025 4.14673 9.41467 3.8588C8.82686 3.57086 8.17009 3.45353 7.51894 3.52011C6.8678 3.5867 6.24837 3.83455 5.73101 4.2355C5.21365 4.63646 4.81909 5.17445 4.59214 5.78839C4.36518 6.40233 4.31494 7.0676 4.4471 7.70866C4.57926 8.34973 4.88854 8.94088 5.33981 9.41499C5.79108 9.88911 6.36625 10.2272 7.00001 10.3908V17.6096C6.17518 17.8225 5.45634 18.329 4.97823 19.0341C4.50012 19.7391 4.29556 20.5944 4.4029 21.4394C4.51024 22.2845 4.92211 23.0615 5.5613 23.6246C6.2005 24.1877 7.02313 24.4984 7.87501 24.4984C8.72689 24.4984 9.54952 24.1877 10.1887 23.6246C10.8279 23.0615 11.2398 22.2845 11.3471 21.4394C11.4545 20.5944 11.2499 19.7391 10.7718 19.0341C10.2937 18.329 9.57483 17.8225 8.75001 17.6096V10.3908C9.50104 10.1957 10.1662 9.75706 10.6412 9.1435C11.1162 8.52994 11.3743 7.77614 11.375 7.00019ZM9.62501 21.0002C9.62501 21.3463 9.52237 21.6847 9.33008 21.9724C9.13779 22.2602 8.86448 22.4845 8.5447 22.617C8.22493 22.7494 7.87307 22.7841 7.5336 22.7166C7.19413 22.649 6.88231 22.4824 6.63757 22.2376C6.39283 21.9929 6.22616 21.6811 6.15863 21.3416C6.09111 21.0021 6.12577 20.6503 6.25822 20.3305C6.39067 20.0107 6.61497 19.7374 6.90276 19.5451C7.19055 19.3528 7.52889 19.2502 7.87501 19.2502C8.33914 19.2502 8.78426 19.4346 9.11245 19.7628C9.44063 20.0909 9.62501 20.5361 9.62501 21.0002ZM25.375 21.0002C25.3747 21.6547 25.1908 22.2961 24.8443 22.8514C24.4978 23.4067 24.0025 23.8536 23.4147 24.1416C22.8269 24.4295 22.1701 24.5469 21.5189 24.4803C20.8678 24.4137 20.2484 24.1658 19.731 23.7649C19.2136 23.3639 18.8191 22.8259 18.5921 22.212C18.3652 21.5981 18.3149 20.9328 18.4471 20.2917C18.5793 19.6507 18.8885 19.0595 19.3398 18.5854C19.7911 18.1113 20.3663 17.7732 21 17.6096V12.1003C21.0001 11.9854 20.9775 11.8716 20.9336 11.7654C20.8897 11.6591 20.8253 11.5626 20.7441 11.4813L16.625 7.36222V10.5002C16.625 10.7323 16.5328 10.9548 16.3687 11.1189C16.2046 11.283 15.9821 11.3752 15.75 11.3752C15.5179 11.3752 15.2954 11.283 15.1313 11.1189C14.9672 10.9548 14.875 10.7323 14.875 10.5002V5.25019C14.875 5.01813 14.9672 4.79557 15.1313 4.63147C15.2954 4.46738 15.5179 4.37519 15.75 4.37519H21C21.2321 4.37519 21.4546 4.46738 21.6187 4.63147C21.7828 4.79557 21.875 5.01813 21.875 5.25019C21.875 5.48225 21.7828 5.70481 21.6187 5.86891C21.4546 6.033 21.2321 6.12519 21 6.12519H17.862L21.9844 10.2443C22.2287 10.4881 22.4221 10.778 22.5536 11.0972C22.685 11.4164 22.7518 11.7585 22.75 12.1036V17.6096C23.501 17.8046 24.1662 18.2433 24.6412 18.8569C25.1162 19.4704 25.3743 20.2242 25.375 21.0002Z" fill="#608BE1"/>
</g>
<defs>
<clipPath id="clip0_5321_9029">
<rect width="28" height="28" fill="white"/>
</clipPath>
</defs>
</svg>
