<svg width="137" height="20" viewBox="0 0 137 20" fill="none" xmlns="http://www.w3.org/2000/svg">
<path d="M13.4302 2.04004C14.2581 2.01068 14.4611 2.01134 15.5103 2.05469C18.4429 2.17589 20.9846 2.63606 22.9771 3.36523C24.9768 4.09713 26.3826 5.0853 27.105 6.23242C27.4536 6.78599 27.493 7.311 27.2964 7.81348C27.0916 8.33651 26.6134 8.87732 25.8452 9.38965C24.3095 10.4137 21.7459 11.2347 18.4985 11.5713C17.7314 11.6508 16.5203 11.6799 15.3462 11.6621C14.1672 11.6442 13.064 11.5796 12.5034 11.4824C12.3642 11.4584 11.8809 11.3774 11.4302 11.3027C9.6306 11.0042 7.99109 10.4359 6.79834 9.76758C6.20147 9.43314 5.72903 9.08125 5.40479 8.73633C5.07683 8.38744 4.92884 8.0767 4.91064 7.82324C4.87668 7.34683 5.25825 6.80541 6.24072 6.27832C7.19152 5.76823 8.56729 5.35277 10.1694 5.08105C13.3734 4.5377 17.3673 4.58857 20.4302 5.50684C21.7914 5.915 22.6445 6.38911 23.019 6.81836C23.1983 7.02382 23.2363 7.18164 23.2231 7.29688C23.2094 7.41651 23.1297 7.58491 22.8774 7.78613C22.4405 8.1346 21.6461 8.44887 20.5923 8.69238C19.5522 8.9327 18.3061 9.09349 17.0073 9.16406C14.3965 9.3059 11.6426 9.07906 9.95654 8.44824C9.84851 8.40784 9.74196 8.33614 9.66357 8.25293C9.5795 8.16365 9.56135 8.09862 9.56006 8.08594C9.55459 8.03221 9.56404 7.99803 9.59326 7.95996C9.6313 7.91048 9.71591 7.8389 9.89111 7.75977C10.247 7.59911 10.8503 7.46438 11.7759 7.35645C12.1022 7.31839 12.5648 7.26241 12.8042 7.23242C13.1547 7.18854 14.0276 7.16921 14.8853 7.1748C15.3091 7.17757 15.7205 7.18577 16.0483 7.2002C16.2122 7.20741 16.3527 7.2161 16.4624 7.22559C16.5172 7.23033 16.5622 7.23555 16.5972 7.24023C16.6145 7.24256 16.6287 7.24424 16.6392 7.24609C16.6442 7.24699 16.648 7.24843 16.6509 7.24902C16.6537 7.24962 16.6558 7.25 16.6558 7.25C16.7597 7.27662 16.8328 7.29912 16.8843 7.31934C16.8996 7.32537 16.9109 7.33242 16.9204 7.33691C16.9199 7.37226 16.916 7.38744 16.9146 7.3916C16.9144 7.39213 16.9154 7.39282 16.9106 7.39746C16.8907 7.41667 16.8142 7.46965 16.5806 7.52441C16.1156 7.63338 15.2738 7.69933 13.7642 7.76953C13.3507 7.78877 12.9721 7.80802 12.6948 7.82422C12.5564 7.8323 12.4413 7.83967 12.3599 7.8457C12.3198 7.84868 12.2849 7.85179 12.2583 7.85449C12.2457 7.85577 12.2296 7.85706 12.2144 7.85938C12.2076 7.86041 12.1937 7.86332 12.1772 7.86719C12.1695 7.869 12.1526 7.87258 12.1323 7.87988C12.1296 7.88087 12.0551 7.90454 11.9888 7.9707C11.9522 8.00723 11.8977 8.07627 11.8774 8.17871C11.8554 8.29063 11.8847 8.39107 11.9292 8.46387C11.9989 8.57795 12.1051 8.62377 12.1255 8.63281C12.1955 8.66376 12.2757 8.67963 12.3315 8.68945C12.4597 8.71198 12.6415 8.73082 12.8511 8.74609C13.276 8.77705 13.8678 8.79897 14.5015 8.81055C15.7607 8.83356 17.2347 8.81541 17.9263 8.7334C18.74 8.63686 19.5838 8.47045 20.27 8.28418C20.6127 8.19115 20.9228 8.09107 21.1733 7.99023C21.4062 7.89649 21.643 7.78122 21.7876 7.63672C21.8742 7.55016 21.9147 7.43387 21.9087 7.32031C21.9035 7.22397 21.8656 7.15183 21.8423 7.11328C21.7961 7.03703 21.7331 6.97971 21.6919 6.94531C21.6 6.86856 21.4743 6.78915 21.3433 6.71582C21.1429 6.60371 20.891 6.48394 20.6353 6.38379L20.3794 6.29102C18.4777 5.65876 15.5725 5.46305 12.9224 5.60938C11.5918 5.68284 10.3094 5.84331 9.23193 6.08496C8.16998 6.32314 7.25302 6.65093 6.70068 7.09082C6.52314 7.23227 6.37759 7.40448 6.30322 7.6123C6.22589 7.82857 6.2384 8.0492 6.31982 8.25293C6.47042 8.62948 6.8495 8.93735 7.29834 9.19043C8.22258 9.7115 9.76182 10.1752 11.6968 10.4932C14.2744 10.9166 17.2659 10.8702 19.8384 10.4844C21.1254 10.2913 22.3175 10.0117 23.3071 9.6582C24.2868 9.30823 25.1083 8.87152 25.6138 8.3418C25.8977 8.04421 26.0763 7.71016 26.1187 7.34668C26.161 6.9829 26.0619 6.63366 25.8716 6.31543C25.5008 5.69568 24.7542 5.14277 23.8062 4.67676C21.8916 3.73575 18.9332 3.0407 15.6597 2.9248C12.7982 2.82352 9.69765 3.08621 7.73389 3.60742C5.74976 4.13395 4.70932 4.54449 3.63916 5.25195C2.7354 5.8494 2.14499 6.53873 1.97607 7.37207C1.80757 8.20352 2.07902 9.07911 2.67139 10.0039C5.12965 13.8416 9.82891 16.1514 15.0327 16.1465C17.8038 16.1438 20.6114 15.4634 22.9478 14.3496C24.5413 13.5898 25.9364 12.6161 26.9497 11.5C25.1637 15.3158 20.4672 17.7671 13.9956 17.9736C10.4059 18.0882 6.94988 16.8693 4.45752 14.9551C1.95902 13.0361 0.481306 10.4651 0.709473 7.88477C0.850712 6.288 2.02396 4.90087 4.21533 3.86328C6.4041 2.82704 9.54106 2.17804 13.4302 2.04004Z" fill="black" stroke="black" stroke-width="0.775919"/>
<path d="M33.992 16V4.336H39.416C40.4293 4.336 41.2613 4.49067 41.912 4.8C42.5733 5.10933 43.064 5.552 43.384 6.128C43.7147 6.69333 43.88 7.36 43.88 8.128C43.88 8.97067 43.6933 9.67467 43.32 10.24C42.9573 10.8053 42.44 11.232 41.768 11.52C41.096 11.7973 40.312 11.936 39.416 11.936H36.296V10.08H39.176C39.912 10.08 40.456 9.90933 40.808 9.568C41.16 9.22667 41.336 8.77333 41.336 8.208C41.336 7.568 41.1387 7.104 40.744 6.816C40.36 6.51733 39.8373 6.368 39.176 6.368H36.056L36.504 5.92V16H33.992ZM49.2443 16.144C48.2629 16.144 47.4203 15.9627 46.7163 15.6C46.0229 15.2373 45.4896 14.7307 45.1163 14.08C44.7536 13.4187 44.5723 12.6507 44.5723 11.776C44.5723 10.848 44.7589 10.0533 45.1323 9.392C45.5163 8.72 46.0549 8.20267 46.7483 7.84C47.4523 7.47733 48.2736 7.296 49.2123 7.296C50.2683 7.296 51.1483 7.504 51.8523 7.92C52.5563 8.336 53.0683 8.91733 53.3883 9.664C53.7083 10.4107 53.8256 11.2747 53.7403 12.256H47.0203C47.0309 12.7253 47.1323 13.12 47.3243 13.44C47.5163 13.76 47.7829 14 48.1243 14.16C48.4656 14.32 48.8603 14.4 49.3083 14.4C49.8203 14.4 50.2576 14.304 50.6203 14.112C50.9829 13.9093 51.2176 13.648 51.3243 13.328H53.6603C53.5643 13.9147 53.3136 14.4213 52.9083 14.848C52.5029 15.264 51.9856 15.584 51.3563 15.808C50.7269 16.032 50.0229 16.144 49.2443 16.144ZM46.9883 11.024L46.8443 10.832H51.5003L51.3403 11.024C51.3509 10.576 51.2656 10.2027 51.0843 9.904C50.9136 9.60533 50.6683 9.38133 50.3483 9.232C50.0389 9.072 49.6603 8.992 49.2123 8.992C48.7643 8.992 48.3749 9.07733 48.0443 9.248C47.7243 9.408 47.4736 9.64267 47.2923 9.952C47.1109 10.2507 47.0096 10.608 46.9883 11.024ZM55.0683 16V7.44H57.3883L57.4683 8.992H57.5963C57.8523 8.43733 58.2576 8.016 58.8123 7.728C59.3669 7.44 59.9589 7.296 60.5883 7.296C61.0896 7.296 61.5483 7.36533 61.9643 7.504C62.3803 7.632 62.7376 7.84533 63.0363 8.144C63.3456 8.44267 63.5856 8.83733 63.7563 9.328C63.9269 9.808 64.0123 10.4 64.0123 11.104V16H61.5963V11.568C61.5963 11.0453 61.5323 10.608 61.4043 10.256C61.2869 9.89333 61.0896 9.62667 60.8123 9.456C60.5349 9.27467 60.1723 9.184 59.7243 9.184C59.2549 9.184 58.8549 9.29067 58.5243 9.504C58.1936 9.70667 57.9323 9.984 57.7403 10.336C57.5589 10.688 57.4683 11.088 57.4683 11.536V16H55.0683ZM69.3096 16.16C68.659 16.16 68.0723 16.096 67.5496 15.968C67.0376 15.8293 66.6056 15.6373 66.2536 15.392C65.9016 15.1467 65.6243 14.848 65.4216 14.496C65.2296 14.144 65.123 13.7547 65.1016 13.328H67.4696C67.491 13.6053 67.5763 13.84 67.7256 14.032C67.8856 14.224 68.1043 14.368 68.3816 14.464C68.659 14.5493 68.9896 14.592 69.3736 14.592C69.9176 14.592 70.3336 14.512 70.6216 14.352C70.9203 14.1813 71.0696 13.936 71.0696 13.616C71.0696 13.36 71.0056 13.168 70.8776 13.04C70.7603 12.912 70.5576 12.816 70.2696 12.752C69.9923 12.6773 69.6083 12.6133 69.1176 12.56C68.243 12.4533 67.5283 12.3093 66.9736 12.128C66.419 11.9467 66.0083 11.6853 65.7416 11.344C65.4856 11.0027 65.3576 10.5547 65.3576 10C65.3576 9.456 65.5176 8.98133 65.8376 8.576C66.1683 8.17067 66.6323 7.856 67.2296 7.632C67.827 7.39733 68.5363 7.28 69.3576 7.28C70.115 7.28 70.7763 7.38667 71.3416 7.6C71.9176 7.81333 72.3656 8.12267 72.6856 8.528C73.0163 8.93333 73.203 9.41867 73.2456 9.984H70.9416C70.9203 9.71733 70.835 9.504 70.6856 9.344C70.547 9.17333 70.3603 9.05067 70.1256 8.976C69.9016 8.89067 69.635 8.848 69.3256 8.848C68.8456 8.848 68.4563 8.928 68.1576 9.088C67.8696 9.248 67.7256 9.48267 67.7256 9.792C67.7256 10.016 67.795 10.192 67.9336 10.32C68.0723 10.448 68.2963 10.5493 68.6056 10.624C68.915 10.688 69.315 10.752 69.8056 10.816C70.6696 10.9013 71.3736 11.04 71.9176 11.232C72.4616 11.4133 72.8563 11.68 73.1016 12.032C73.347 12.3733 73.4696 12.8427 73.4696 13.44C73.4696 13.9947 73.3096 14.48 72.9896 14.896C72.6696 15.3013 72.2003 15.616 71.5816 15.84C70.963 16.0533 70.2056 16.16 69.3096 16.16ZM74.7714 16V7.44H77.1714V16H74.7714ZM75.9714 6.4C75.5447 6.4 75.214 6.304 74.9794 6.112C74.7554 5.92 74.6434 5.664 74.6434 5.344C74.6434 5.00267 74.766 4.74133 75.0114 4.56C75.2567 4.37867 75.5767 4.288 75.9714 4.288C76.398 4.288 76.7234 4.384 76.9474 4.576C77.182 4.75733 77.2994 5.01333 77.2994 5.344C77.2994 5.68533 77.1767 5.94667 76.9314 6.128C76.686 6.30933 76.366 6.4 75.9714 6.4ZM83.1661 16.144C82.1848 16.144 81.3421 15.9627 80.6381 15.6C79.9448 15.2373 79.4115 14.7307 79.0381 14.08C78.6755 13.4187 78.4941 12.6507 78.4941 11.776C78.4941 10.848 78.6808 10.0533 79.0541 9.392C79.4381 8.72 79.9768 8.20267 80.6701 7.84C81.3741 7.47733 82.1955 7.296 83.1341 7.296C84.1901 7.296 85.0701 7.504 85.7741 7.92C86.4781 8.336 86.9901 8.91733 87.3101 9.664C87.6301 10.4107 87.7475 11.2747 87.6621 12.256H80.9421C80.9528 12.7253 81.0541 13.12 81.2461 13.44C81.4381 13.76 81.7048 14 82.0461 14.16C82.3875 14.32 82.7821 14.4 83.2301 14.4C83.7421 14.4 84.1795 14.304 84.5421 14.112C84.9048 13.9093 85.1395 13.648 85.2461 13.328H87.5821C87.4861 13.9147 87.2355 14.4213 86.8301 14.848C86.4248 15.264 85.9075 15.584 85.2781 15.808C84.6488 16.032 83.9448 16.144 83.1661 16.144ZM80.9101 11.024L80.7661 10.832H85.4221L85.2621 11.024C85.2728 10.576 85.1875 10.2027 85.0061 9.904C84.8355 9.60533 84.5901 9.38133 84.2701 9.232C83.9608 9.072 83.5821 8.992 83.1341 8.992C82.6861 8.992 82.2968 9.07733 81.9661 9.248C81.6461 9.408 81.3955 9.64267 81.2141 9.952C81.0328 10.2507 80.9315 10.608 80.9101 11.024ZM91.331 16L87.955 7.44H90.467L92.035 11.984L92.739 14.176H92.851L93.555 11.984L95.107 7.44H97.635L94.259 16H91.331ZM102.541 16.144C101.56 16.144 100.717 15.9627 100.013 15.6C99.3198 15.2373 98.7865 14.7307 98.4131 14.08C98.0505 13.4187 97.8691 12.6507 97.8691 11.776C97.8691 10.848 98.0558 10.0533 98.4291 9.392C98.8131 8.72 99.3518 8.20267 100.045 7.84C100.749 7.47733 101.57 7.296 102.509 7.296C103.565 7.296 104.445 7.504 105.149 7.92C105.853 8.336 106.365 8.91733 106.685 9.664C107.005 10.4107 107.122 11.2747 107.037 12.256H100.317C100.328 12.7253 100.429 13.12 100.621 13.44C100.813 13.76 101.08 14 101.421 14.16C101.762 14.32 102.157 14.4 102.605 14.4C103.117 14.4 103.554 14.304 103.917 14.112C104.28 13.9093 104.514 13.648 104.621 13.328H106.957C106.861 13.9147 106.61 14.4213 106.205 14.848C105.8 15.264 105.282 15.584 104.653 15.808C104.024 16.032 103.32 16.144 102.541 16.144ZM100.285 11.024L100.141 10.832H104.797L104.637 11.024C104.648 10.576 104.562 10.2027 104.381 9.904C104.21 9.60533 103.965 9.38133 103.645 9.232C103.336 9.072 102.957 8.992 102.509 8.992C102.061 8.992 101.672 9.07733 101.341 9.248C101.021 9.408 100.77 9.64267 100.589 9.952C100.408 10.2507 100.306 10.608 100.285 11.024ZM109.119 16.128C108.682 16.128 108.351 16.0267 108.127 15.824C107.914 15.6107 107.807 15.3387 107.807 15.008C107.807 14.6773 107.914 14.4107 108.127 14.208C108.351 14.0053 108.682 13.904 109.119 13.904C109.546 13.904 109.866 14.0053 110.079 14.208C110.303 14.4107 110.415 14.6773 110.415 15.008C110.415 15.3387 110.303 15.6107 110.079 15.824C109.866 16.0267 109.546 16.128 109.119 16.128ZM115.697 16.144C114.716 16.144 113.873 15.9627 113.169 15.6C112.476 15.2373 111.943 14.7307 111.569 14.08C111.207 13.4187 111.025 12.6507 111.025 11.776C111.025 10.848 111.212 10.0533 111.585 9.392C111.969 8.72 112.508 8.20267 113.201 7.84C113.905 7.47733 114.727 7.296 115.665 7.296C116.721 7.296 117.601 7.504 118.305 7.92C119.009 8.336 119.521 8.91733 119.841 9.664C120.161 10.4107 120.279 11.2747 120.193 12.256H113.473C113.484 12.7253 113.585 13.12 113.777 13.44C113.969 13.76 114.236 14 114.577 14.16C114.919 14.32 115.313 14.4 115.761 14.4C116.273 14.4 116.711 14.304 117.073 14.112C117.436 13.9093 117.671 13.648 117.777 13.328H120.113C120.017 13.9147 119.767 14.4213 119.361 14.848C118.956 15.264 118.439 15.584 117.809 15.808C117.18 16.032 116.476 16.144 115.697 16.144ZM113.441 11.024L113.297 10.832H117.953L117.793 11.024C117.804 10.576 117.719 10.2027 117.537 9.904C117.367 9.60533 117.121 9.38133 116.801 9.232C116.492 9.072 116.113 8.992 115.665 8.992C115.217 8.992 114.828 9.07733 114.497 9.248C114.177 9.408 113.927 9.64267 113.745 9.952C113.564 10.2507 113.463 10.608 113.441 11.024ZM125.884 16.144C125.169 16.144 124.524 16.0427 123.948 15.84C123.383 15.6267 122.897 15.328 122.492 14.944C122.087 14.5493 121.772 14.08 121.548 13.536C121.335 12.9813 121.228 12.3733 121.228 11.712C121.228 11.0293 121.34 10.416 121.564 9.872C121.788 9.328 122.108 8.864 122.524 8.48C122.951 8.096 123.452 7.80267 124.028 7.6C124.615 7.39733 125.265 7.296 125.98 7.296C126.812 7.296 127.548 7.43467 128.188 7.712C128.828 7.97867 129.335 8.35733 129.708 8.848C130.081 9.328 130.289 9.888 130.332 10.528H127.964C127.9 10.24 127.772 9.99467 127.58 9.792C127.399 9.58933 127.169 9.44 126.892 9.344C126.615 9.23733 126.3 9.184 125.948 9.184C125.585 9.184 125.26 9.248 124.972 9.376C124.684 9.49333 124.444 9.664 124.252 9.888C124.06 10.112 123.911 10.3787 123.804 10.688C123.697 10.9867 123.644 11.328 123.644 11.712C123.644 12.2667 123.74 12.736 123.932 13.12C124.124 13.4933 124.391 13.776 124.732 13.968C125.073 14.16 125.473 14.256 125.932 14.256C126.295 14.256 126.62 14.1973 126.908 14.08C127.196 13.9627 127.431 13.8027 127.612 13.6C127.804 13.3867 127.932 13.136 127.996 12.848H130.38C130.327 13.52 130.092 14.1067 129.676 14.608C129.271 15.0987 128.737 15.4773 128.076 15.744C127.425 16.0107 126.695 16.144 125.884 16.144ZM132.32 16V9.296H130.864V7.44H132.32V6.592C132.32 5.856 132.544 5.296 132.992 4.912C133.44 4.528 134.074 4.336 134.896 4.336H136.688V5.968H135.584C135.285 5.968 135.066 6.032 134.928 6.16C134.789 6.288 134.72 6.48533 134.72 6.752V7.44H136.544V9.296H134.72V16H132.32Z" fill="black"/>
</svg>
