<svg width="33" height="33" viewBox="0 0 33 33" fill="none" xmlns="http://www.w3.org/2000/svg">
<g clip-path="url(#clip0_2408_23645)">
<path d="M16.5 3.09033C13.9288 3.09033 11.4154 3.85277 9.27759 5.28123C7.13975 6.70969 5.47351 8.74001 4.48957 11.1154C3.50563 13.4909 3.24819 16.1048 3.7498 18.6265C4.25141 21.1483 5.48953 23.4646 7.30762 25.2827C9.1257 27.1008 11.4421 28.3389 13.9638 28.8405C16.4856 29.3421 19.0995 29.0847 21.4749 28.1008C23.8503 27.1168 25.8807 25.4506 27.3091 23.3127C28.7376 21.1749 29.5 18.6615 29.5 16.0903C29.4964 12.6436 28.1256 9.33915 25.6884 6.90196C23.2512 4.46478 19.9467 3.09397 16.5 3.09033ZM22.2075 13.7978L15.2075 20.7978C15.1146 20.8908 15.0043 20.9646 14.8829 21.0149C14.7615 21.0652 14.6314 21.0911 14.5 21.0911C14.3686 21.0911 14.2385 21.0652 14.1171 21.0149C13.9957 20.9646 13.8854 20.8908 13.7925 20.7978L10.7925 17.7978C10.6049 17.6102 10.4994 17.3557 10.4994 17.0903C10.4994 16.825 10.6049 16.5705 10.7925 16.3828C10.9801 16.1952 11.2346 16.0898 11.5 16.0898C11.7654 16.0898 12.0199 16.1952 12.2075 16.3828L14.5 18.6766L20.7925 12.3828C20.8854 12.2899 20.9957 12.2162 21.1171 12.1659C21.2385 12.1157 21.3686 12.0898 21.5 12.0898C21.6314 12.0898 21.7615 12.1157 21.8829 12.1659C22.0043 12.2162 22.1146 12.2899 22.2075 12.3828C22.3004 12.4757 22.3741 12.586 22.4244 12.7074C22.4747 12.8288 22.5006 12.9589 22.5006 13.0903C22.5006 13.2217 22.4747 13.3518 22.4244 13.4732C22.3741 13.5946 22.3004 13.7049 22.2075 13.7978Z" fill="#2d8f66"/>
</g>
<defs>
<clipPath id="clip0_2408_23645">
<rect width="32" height="32" fill="white" transform="translate(0.5 0.090332)"/>
</clipPath>
</defs>
</svg>
