<svg width="28" height="29" viewBox="0 0 28 29" fill="none" xmlns="http://www.w3.org/2000/svg">
<g clip-path="url(#clip0_5321_8762)">
<path d="M11.375 7.50019C11.3747 6.84565 11.1908 6.20431 10.8443 5.64902C10.4978 5.09373 10.0025 4.64673 9.41467 4.3588C8.82686 4.07086 8.17009 3.95353 7.51894 4.02011C6.8678 4.0867 6.24837 4.33455 5.73101 4.7355C5.21365 5.13646 4.81909 5.67445 4.59214 6.28839C4.36518 6.90233 4.31494 7.5676 4.4471 8.20866C4.57926 8.84973 4.88854 9.44088 5.33981 9.91499C5.79108 10.3891 6.36625 10.7272 7.00001 10.8908V18.1096C6.17518 18.3225 5.45634 18.829 4.97823 19.5341C4.50012 20.2391 4.29556 21.0944 4.4029 21.9394C4.51024 22.7845 4.92211 23.5615 5.5613 24.1246C6.2005 24.6877 7.02313 24.9984 7.87501 24.9984C8.72689 24.9984 9.54952 24.6877 10.1887 24.1246C10.8279 23.5615 11.2398 22.7845 11.3471 21.9394C11.4545 21.0944 11.2499 20.2391 10.7718 19.5341C10.2937 18.829 9.57483 18.3225 8.75001 18.1096V10.8908C9.50104 10.6957 10.1662 10.2571 10.6412 9.6435C11.1162 9.02994 11.3743 8.27614 11.375 7.50019ZM9.62501 21.5002C9.62501 21.8463 9.52237 22.1847 9.33008 22.4724C9.13779 22.7602 8.86448 22.9845 8.5447 23.117C8.22493 23.2494 7.87307 23.2841 7.5336 23.2166C7.19413 23.149 6.88231 22.9824 6.63757 22.7376C6.39283 22.4929 6.22616 22.1811 6.15863 21.8416C6.09111 21.5021 6.12577 21.1503 6.25822 20.8305C6.39067 20.5107 6.61497 20.2374 6.90276 20.0451C7.19055 19.8528 7.52889 19.7502 7.87501 19.7502C8.33914 19.7502 8.78426 19.9346 9.11245 20.2628C9.44063 20.5909 9.62501 21.0361 9.62501 21.5002ZM25.375 21.5002C25.3747 22.1547 25.1908 22.7961 24.8443 23.3514C24.4978 23.9067 24.0025 24.3536 23.4147 24.6416C22.8269 24.9295 22.1701 25.0469 21.5189 24.9803C20.8678 24.9137 20.2484 24.6658 19.731 24.2649C19.2136 23.8639 18.8191 23.3259 18.5921 22.712C18.3652 22.0981 18.3149 21.4328 18.4471 20.7917C18.5793 20.1507 18.8885 19.5595 19.3398 19.0854C19.7911 18.6113 20.3663 18.2732 21 18.1096V12.6003C21.0001 12.4854 20.9775 12.3716 20.9336 12.2654C20.8897 12.1591 20.8253 12.0626 20.7441 11.9813L16.625 7.86222V11.0002C16.625 11.2323 16.5328 11.4548 16.3687 11.6189C16.2046 11.783 15.9821 11.8752 15.75 11.8752C15.5179 11.8752 15.2954 11.783 15.1313 11.6189C14.9672 11.4548 14.875 11.2323 14.875 11.0002V5.75019C14.875 5.51813 14.9672 5.29557 15.1313 5.13147C15.2954 4.96738 15.5179 4.87519 15.75 4.87519H21C21.2321 4.87519 21.4546 4.96738 21.6187 5.13147C21.7828 5.29557 21.875 5.51813 21.875 5.75019C21.875 5.98225 21.7828 6.20481 21.6187 6.36891C21.4546 6.533 21.2321 6.62519 21 6.62519H17.862L21.9844 10.7443C22.2287 10.9881 22.4221 11.278 22.5536 11.5972C22.685 11.9164 22.7518 12.2585 22.75 12.6036V18.1096C23.501 18.3046 24.1662 18.7433 24.6412 19.3569C25.1162 19.9704 25.3743 20.7242 25.375 21.5002Z" fill="#608BE1"/>
</g>
<defs>
<clipPath id="clip0_5321_8762">
<rect width="28" height="28" fill="white" transform="translate(0 0.5)"/>
</clipPath>
</defs>
</svg>
