<svg width="28" height="18" viewBox="0 0 28 18" fill="none" xmlns="http://www.w3.org/2000/svg">
<path d="M13.4302 1.04004C14.2581 1.01068 14.4611 1.01134 15.5103 1.05469C18.4429 1.17589 20.9846 1.63606 22.9771 2.36523C24.9768 3.09713 26.3826 4.0853 27.105 5.23242C27.4536 5.78599 27.493 6.311 27.2964 6.81348C27.0916 7.33651 26.6134 7.87732 25.8452 8.38965C24.3095 9.41366 21.7459 10.2347 18.4985 10.5713C17.7314 10.6508 16.5203 10.6799 15.3462 10.6621C14.1672 10.6442 13.064 10.5796 12.5034 10.4824C12.3642 10.4584 11.8809 10.3774 11.4302 10.3027C9.6306 10.0042 7.99109 9.43588 6.79834 8.76758C6.20147 8.43314 5.72903 8.08125 5.40479 7.73633C5.07683 7.38744 4.92884 7.0767 4.91064 6.82324C4.87668 6.34683 5.25825 5.80541 6.24072 5.27832C7.19152 4.76823 8.56729 4.35277 10.1694 4.08105C13.3734 3.5377 17.3673 3.58857 20.4302 4.50684C21.7914 4.915 22.6445 5.38911 23.019 5.81836C23.1983 6.02382 23.2363 6.18164 23.2231 6.29688C23.2094 6.41651 23.1297 6.58491 22.8774 6.78613C22.4405 7.1346 21.6461 7.44887 20.5923 7.69238C19.5522 7.9327 18.3061 8.09349 17.0073 8.16406C14.3965 8.3059 11.6426 8.07906 9.95654 7.44824C9.84851 7.40784 9.74196 7.33614 9.66357 7.25293C9.5795 7.16365 9.56135 7.09862 9.56006 7.08594C9.55459 7.03221 9.56404 6.99803 9.59326 6.95996C9.6313 6.91048 9.71591 6.8389 9.89111 6.75977C10.247 6.59911 10.8503 6.46438 11.7759 6.35645C12.1022 6.31839 12.5648 6.26241 12.8042 6.23242C13.1547 6.18854 14.0276 6.16921 14.8853 6.1748C15.3091 6.17757 15.7205 6.18577 16.0483 6.2002C16.2122 6.20741 16.3527 6.2161 16.4624 6.22559C16.5172 6.23033 16.5622 6.23555 16.5972 6.24023C16.6145 6.24256 16.6287 6.24424 16.6392 6.24609C16.6442 6.24699 16.648 6.24843 16.6509 6.24902C16.6537 6.24962 16.6558 6.25 16.6558 6.25C16.7597 6.27662 16.8328 6.29912 16.8843 6.31934C16.8996 6.32537 16.9109 6.33242 16.9204 6.33691C16.9199 6.37226 16.916 6.38744 16.9146 6.3916C16.9144 6.39213 16.9154 6.39282 16.9106 6.39746C16.8907 6.41667 16.8142 6.46965 16.5806 6.52441C16.1156 6.63338 15.2738 6.69933 13.7642 6.76953C13.3507 6.78877 12.9721 6.80802 12.6948 6.82422C12.5564 6.8323 12.4413 6.83967 12.3599 6.8457C12.3198 6.84868 12.2849 6.85179 12.2583 6.85449C12.2457 6.85577 12.2296 6.85706 12.2144 6.85938C12.2076 6.86041 12.1937 6.86332 12.1772 6.86719C12.1695 6.869 12.1526 6.87258 12.1323 6.87988C12.1296 6.88087 12.0551 6.90454 11.9888 6.9707C11.9522 7.00723 11.8977 7.07627 11.8774 7.17871C11.8554 7.29063 11.8847 7.39107 11.9292 7.46387C11.9989 7.57795 12.1051 7.62377 12.1255 7.63281C12.1955 7.66376 12.2757 7.67963 12.3315 7.68945C12.4597 7.71198 12.6415 7.73082 12.8511 7.74609C13.276 7.77705 13.8678 7.79897 14.5015 7.81055C15.7607 7.83356 17.2347 7.81541 17.9263 7.7334C18.74 7.63686 19.5838 7.47045 20.27 7.28418C20.6127 7.19115 20.9228 7.09107 21.1733 6.99023C21.4062 6.89649 21.643 6.78122 21.7876 6.63672C21.8742 6.55016 21.9147 6.43387 21.9087 6.32031C21.9035 6.22397 21.8656 6.15183 21.8423 6.11328C21.7961 6.03703 21.7331 5.97971 21.6919 5.94531C21.6 5.86856 21.4743 5.78915 21.3433 5.71582C21.1429 5.60371 20.891 5.48394 20.6353 5.38379L20.3794 5.29102C18.4777 4.65876 15.5725 4.46305 12.9224 4.60938C11.5918 4.68284 10.3094 4.84331 9.23193 5.08496C8.16998 5.32314 7.25302 5.65093 6.70068 6.09082C6.52314 6.23227 6.37759 6.40448 6.30322 6.6123C6.22589 6.82857 6.2384 7.0492 6.31982 7.25293C6.47042 7.62948 6.8495 7.93735 7.29834 8.19043C8.22258 8.7115 9.76182 9.17524 11.6968 9.49316C14.2744 9.91665 17.2659 9.87021 19.8384 9.48438C21.1254 9.29134 22.3175 9.01167 23.3071 8.6582C24.2868 8.30823 25.1083 7.87152 25.6138 7.3418C25.8977 7.04421 26.0763 6.71016 26.1187 6.34668C26.161 5.9829 26.0619 5.63366 25.8716 5.31543C25.5008 4.69568 24.7542 4.14277 23.8062 3.67676C21.8916 2.73575 18.9332 2.0407 15.6597 1.9248C12.7982 1.82352 9.69765 2.08621 7.73389 2.60742C5.74976 3.13395 4.70932 3.54449 3.63916 4.25195C2.7354 4.8494 2.14499 5.53873 1.97607 6.37207C1.80757 7.20352 2.07902 8.07911 2.67139 9.00391C5.12965 12.8416 9.82891 15.1514 15.0327 15.1465C17.8038 15.1438 20.6114 14.4634 22.9478 13.3496C24.5413 12.5898 25.9364 11.6161 26.9497 10.5C25.1637 14.3158 20.4672 16.7671 13.9956 16.9736C10.4059 17.0882 6.94988 15.8693 4.45752 13.9551C1.95902 12.0361 0.481306 9.46508 0.709473 6.88477C0.850712 5.288 2.02396 3.90087 4.21533 2.86328C6.4041 1.82704 9.54106 1.17804 13.4302 1.04004Z" fill="black" stroke="black" stroke-width="0.775919"/>
</svg>
