<svg width="28" height="29" viewBox="0 0 28 29" fill="none" xmlns="http://www.w3.org/2000/svg">
<g clip-path="url(#clip0_5345_13704)">
<path d="M22.0436 6.4567C19.9103 4.32345 17.017 3.125 14.0001 3.125C10.9833 3.125 8.08995 4.32345 5.9567 6.4567C3.82345 8.58995 2.625 11.4833 2.625 14.5001C2.625 17.517 3.82345 20.4103 5.9567 22.5436C8.08995 24.6768 10.9833 25.8753 14.0001 25.8753C17.017 25.8753 19.9103 24.6768 22.0436 22.5436C24.1768 20.4103 25.3753 17.517 25.3753 14.5001C25.3753 11.4833 24.1768 8.58995 22.0436 6.4567ZM14.0001 19.189C13.5697 18.6986 13.0105 18.3385 12.3859 18.1496C11.7613 17.9607 11.0963 17.9506 10.4662 18.1205L12.1408 14.5001H15.8595L17.5297 18.1205C16.9002 17.9515 16.2361 17.9621 15.6124 18.1509C14.9886 18.3397 14.4302 18.6993 14.0001 19.189ZM18.3751 23.0719C17.2833 23.6277 16.0954 23.97 14.8751 24.0803V21.5001C14.8751 21.036 15.0595 20.5909 15.3877 20.2627C15.7159 19.9345 16.161 19.7501 16.6251 19.7501C17.0893 19.7501 17.5344 19.9345 17.8626 20.2627C18.1908 20.5909 18.3751 21.036 18.3751 21.5001V23.0719ZM20.8055 21.3065C20.5867 21.5253 20.3592 21.7298 20.1251 21.9234V19.7501C20.1253 19.6236 20.0977 19.4985 20.0442 19.3837L14.7942 8.00873C14.7241 7.8572 14.612 7.72889 14.4713 7.63898C14.3306 7.54906 14.1671 7.50128 14.0001 7.50128C13.8332 7.50128 13.6697 7.54906 13.529 7.63898C13.3883 7.72889 13.2762 7.8572 13.2061 8.00873L7.95608 19.3837C7.90262 19.4985 7.87499 19.6236 7.87514 19.7501V21.9234C7.64108 21.7298 7.41358 21.5253 7.19483 21.3065C5.84858 19.9605 4.93172 18.2455 4.5602 16.3784C4.18868 14.5113 4.37919 12.5759 5.10764 10.8171C5.83608 9.05827 7.06974 7.55496 8.6526 6.49727C10.2355 5.43959 12.0964 4.87505 14.0001 4.87505C15.9039 4.87505 17.7648 5.43959 19.3477 6.49727C20.9305 7.55496 22.1642 9.05827 22.8926 10.8171C23.6211 12.5759 23.8116 14.5113 23.4401 16.3784C23.0686 18.2455 22.1517 19.9605 20.8055 21.3065Z" fill="#608BE1"/>
</g>
<defs>
<clipPath id="clip0_5345_13704">
<rect width="28" height="28" fill="white" transform="translate(0 0.5)"/>
</clipPath>
</defs>
</svg>
