<svg width="1090" height="114" viewBox="0 0 1090 114" fill="none" xmlns="http://www.w3.org/2000/svg">
<path d="M88.9004 0.636719C94.579 0.435336 96.0089 0.445722 103.16 0.741211C123.188 1.56884 140.64 4.71179 154.4 9.74805C168.17 14.7878 178.192 21.7035 183.44 30.0371C186.137 34.32 186.511 38.5824 184.916 42.6592C183.31 46.7624 179.687 50.7317 174.284 54.335C163.479 61.5407 145.725 67.1665 123.542 69.4658C118.219 70.0177 109.917 70.2098 101.932 70.0889C93.9396 69.9678 86.3141 69.5343 82.335 68.8447C81.3997 68.6831 78.1348 68.1361 75.0801 67.6299C62.6841 65.5739 51.3326 61.6521 43.002 56.9844C38.8361 54.6502 35.4421 52.1387 33.0508 49.5947C30.6548 47.0458 29.3031 44.5047 29.1309 42.1074C28.8006 37.5062 32.4927 33.2384 39.2588 29.6084C45.9837 26.0006 55.5549 23.1335 66.5283 21.2725C88.4749 17.5505 115.881 17.8764 137.022 24.2148C146.324 27.0038 152.602 30.358 155.556 33.7432C157.022 35.4239 157.63 37.0656 157.451 38.626C157.272 40.1921 156.288 41.7944 154.319 43.3643C150.972 46.034 145.203 48.2494 137.99 49.916C130.796 51.5785 122.227 52.6819 113.335 53.165C96.0896 54.1021 77.7116 52.7032 65.8232 48.5898L64.6934 48.1836L64.3008 48.0225C63.3941 47.6166 62.5573 47.0085 61.9092 46.3203C61.1612 45.5261 60.7083 44.6727 60.6348 43.9492V43.9482C60.5445 43.0619 60.7551 42.2881 61.2949 41.585C61.8462 40.8671 62.7621 40.1964 64.125 39.5811C66.8571 38.3476 71.2259 37.4073 77.5244 36.6729C79.7316 36.4155 82.8567 36.0401 84.4707 35.8379C87.006 35.5201 93.0632 35.389 98.8545 35.4268C101.743 35.4456 104.554 35.5062 106.81 35.6055C107.937 35.6551 108.923 35.7143 109.709 35.7822C110.505 35.8511 111.065 35.9274 111.36 36.0029H111.361C112.866 36.3884 113.709 36.7193 114.183 37.1074C114.598 37.4475 114.764 37.8602 114.764 38.6113C114.764 39.4762 114.564 40.0947 114.037 40.6016C113.481 41.1365 112.504 41.6042 110.812 42.001C107.429 42.7937 101.506 43.2393 91.3438 43.7119C88.5465 43.842 85.9876 43.9758 84.1191 44.085C83.1855 44.1395 82.4221 44.1879 81.8867 44.2275C81.6196 44.2473 81.4052 44.2649 81.2539 44.2803C81.1794 44.2879 81.1138 44.2959 81.0625 44.3037C81.038 44.3074 81.0071 44.3121 80.9766 44.3193C80.9621 44.3227 80.9363 44.3293 80.9072 44.3398C80.9004 44.3422 80.8459 44.3609 80.7832 44.4053L80.7178 44.46C80.6554 44.5223 80.5759 44.6256 80.5469 44.7725C80.5154 44.9318 80.5557 45.077 80.6221 45.1855C80.73 45.362 80.9088 45.4483 80.999 45.4883C81.2174 45.5851 81.5383 45.6609 81.9062 45.7256C82.6631 45.8586 83.8037 45.9765 85.2119 46.0791C88.0357 46.2848 92.0002 46.4336 96.2764 46.5117C104.819 46.6679 114.667 46.5422 119.19 46.0059C124.603 45.3639 130.216 44.2541 134.764 43.0195C137.037 42.4023 139.054 41.7516 140.649 41.1094C142.222 40.4764 143.456 39.8247 144.101 39.1807C144.243 39.0378 144.31 38.8505 144.3 38.6602C144.291 38.4922 144.225 38.3491 144.161 38.2441C144.034 38.0351 143.825 37.829 143.595 37.6367C143.122 37.2421 142.405 36.7805 141.559 36.3066C139.858 35.355 137.547 34.3054 135.395 33.5898C122.879 29.4287 103.502 28.0878 85.6553 29.0732C76.7248 29.5663 68.1564 30.6435 60.998 32.249C53.8599 33.85 48.055 35.9912 44.7109 38.6543C43.7088 39.4523 43.0251 40.315 42.6943 41.2393C42.3598 42.1743 42.4021 43.13 42.7783 44.0713C43.5149 45.9142 45.5259 47.6957 48.4785 49.3604C54.4177 52.7088 64.5548 55.7996 77.5781 57.9395C94.7923 60.7678 114.837 60.4637 132.084 57.877C140.708 56.5834 148.647 54.7171 155.189 52.3799C161.516 50.1201 166.586 47.4025 169.699 44.2979L169.994 43.9961C171.675 42.2343 172.615 40.3813 172.837 38.4766C173.059 36.5714 172.556 34.6714 171.452 32.8271C169.258 29.1603 164.653 25.6449 158.349 22.5459C145.716 16.3362 125.985 11.6637 104.012 10.8857C84.7491 10.2039 63.9665 11.9812 50.9297 15.4414C37.5798 18.984 30.7867 21.6978 23.8135 26.3076C17.9283 30.1979 14.4419 34.4487 13.4551 39.3174C12.4687 44.1836 14.0062 49.5383 17.875 55.5781C34.073 80.8654 65.1686 96.2508 99.8369 96.2178C118.287 96.2002 136.999 91.667 152.556 84.25C168.102 76.8379 180.557 66.5161 186.413 54.8779L186.414 54.8789C186.591 54.5282 186.762 54.192 186.924 53.8789C186.834 54.3692 186.725 54.9127 186.603 55.4854C186.205 57.3406 185.668 59.4758 185.166 61.0879L184.953 61.7451C174.69 92.1334 140.325 111.343 92.8789 112.857C68.0526 113.65 44.1568 105.225 26.8877 91.9619C9.61079 78.6924 -0.966988 60.6395 0.665039 42.1826C1.71571 30.298 10.4396 20.3884 25.6328 13.1953C40.8223 6.00402 62.3904 1.57744 88.9004 0.636719Z" fill="#68C6AC" stroke="#68C6AC"/>
<path d="M1047.14 105.031V53.1493H1035.02V33.9242H1047.14V28.7887C1047.14 22.3803 1049.11 17.5082 1053.06 14.1723C1057.02 10.7487 1062.72 9.03687 1070.18 9.03687H1089.54V25.6284H1079.01C1076.81 25.6284 1075.19 26.0673 1074.13 26.9452C1073.17 27.7353 1072.68 29.0082 1072.68 30.7639V33.9242H1088.22V53.1493H1072.68V105.031H1047.14Z" fill="#68C6AC" fill-opacity="0.52"/>
<path d="M996.259 106.347C989.675 106.347 983.794 105.47 978.614 103.714C973.435 101.958 969.002 99.4562 965.315 96.2081C961.715 92.8723 958.906 88.9219 956.887 84.357C954.956 79.7921 953.99 74.7444 953.99 69.2139C953.99 63.4201 955 58.2407 957.019 53.6758C959.126 49.1109 962.067 45.2922 965.841 42.2197C969.704 39.0594 974.269 36.6892 979.536 35.1091C984.891 33.4411 990.86 32.6072 997.444 32.6072C1005.52 32.6072 1012.54 33.7923 1018.51 36.1625C1024.48 38.5327 1029.14 41.8686 1032.47 46.1701C1035.89 50.3838 1037.74 55.2998 1038 60.9182H1012.59C1012.24 59.0746 1011.36 57.4945 1009.95 56.1777C1008.55 54.8609 1006.75 53.8514 1004.55 53.1491C1002.45 52.359 1000.03 51.964 997.313 51.964C994.503 51.964 991.958 52.4029 989.675 53.2808C987.481 54.0708 985.637 55.256 984.145 56.8361C982.74 58.3285 981.643 60.1281 980.853 62.2349C980.063 64.3418 979.668 66.6681 979.668 69.2139C979.668 73.1643 980.37 76.4563 981.775 79.0899C983.267 81.7234 985.33 83.6986 987.963 85.0154C990.597 86.2444 993.67 86.8589 997.181 86.8589C999.727 86.8589 1002.05 86.5517 1004.16 85.9372C1006.35 85.2349 1008.2 84.2253 1009.69 82.9085C1011.18 81.504 1012.24 79.7921 1012.85 77.7731H1038.4C1038.05 83.6547 1035.94 88.7463 1032.08 93.0478C1028.21 97.3493 1023.17 100.641 1016.93 102.924C1010.7 105.206 1003.81 106.347 996.259 106.347Z" fill="#68C6AC" fill-opacity="0.52"/>
<path d="M910.595 106.347C901.641 106.347 893.96 104.811 887.551 101.739C881.143 98.666 876.227 94.4084 872.803 88.9657C869.38 83.523 867.668 77.2024 867.668 70.0039C867.668 62.1032 869.423 55.3876 872.935 49.857C876.534 44.3265 881.582 40.1128 888.078 37.2158C894.662 34.2311 902.299 32.7388 910.99 32.7388C920.91 32.7388 929.162 34.5384 935.746 38.1376C942.417 41.649 947.246 46.609 950.23 53.0173C953.215 59.4257 954.225 66.9314 953.259 75.5344H894.53C894.706 78.3436 895.496 80.7138 896.9 82.6451C898.393 84.5764 900.456 86.0688 903.089 87.1222C905.723 88.0878 908.708 88.5707 912.044 88.5707C915.818 88.5707 919.11 87.9562 921.919 86.7271C924.816 85.4104 926.66 83.7863 927.45 81.855H952.732C951.767 87.0344 949.397 91.4676 945.622 95.1546C941.847 98.7538 936.931 101.519 930.874 103.45C924.904 105.382 918.145 106.347 910.595 106.347ZM893.872 63.1566L893.082 61.8398H928.635L927.582 63.0249C927.582 60.128 926.923 57.67 925.607 55.6509C924.378 53.6318 922.534 52.1395 920.076 51.1738C917.618 50.1204 914.589 49.5937 910.99 49.5937C907.567 49.5937 904.582 50.1643 902.036 51.3055C899.578 52.3589 897.647 53.8952 896.242 55.9143C894.838 57.9333 894.047 60.3475 893.872 63.1566Z" fill="#68C6AC" fill-opacity="0.52"/>
<path d="M856.382 106.347C851.553 106.347 848.042 105.294 845.847 103.187C843.653 101.08 842.555 98.4466 842.555 95.2863C842.555 92.126 843.653 89.5363 845.847 87.5172C848.042 85.4104 851.553 84.3569 856.382 84.3569C861.298 84.3569 864.853 85.4104 867.048 87.5172C869.242 89.5363 870.34 92.126 870.34 95.2863C870.34 98.4466 869.242 101.08 867.048 103.187C864.853 105.294 861.298 106.347 856.382 106.347Z" fill="#68C6AC" fill-opacity="0.52"/>
<path d="M801.463 106.347C792.509 106.347 784.827 104.811 778.419 101.739C772.011 98.666 767.095 94.4084 763.671 88.9657C760.247 83.523 758.535 77.2024 758.535 70.0039C758.535 62.1032 760.291 55.3876 763.803 49.857C767.402 44.3265 772.449 40.1128 778.946 37.2158C785.53 34.2311 793.167 32.7388 801.858 32.7388C811.778 32.7388 820.029 34.5384 826.613 38.1376C833.285 41.649 838.113 46.609 841.098 53.0173C844.083 59.4257 845.092 66.9314 844.127 75.5344H785.398C785.573 78.3436 786.364 80.7138 787.768 82.6451C789.261 84.5764 791.324 86.0688 793.957 87.1222C796.591 88.0878 799.575 88.5707 802.911 88.5707C806.686 88.5707 809.978 87.9562 812.787 86.7271C815.684 85.4104 817.528 83.7863 818.318 81.855H843.6C842.634 87.0344 840.264 91.4676 836.489 95.1546C832.715 98.7538 827.799 101.519 821.741 103.45C815.772 105.382 809.012 106.347 801.463 106.347ZM784.74 63.1566L783.949 61.8398H819.503L818.449 63.0249C818.449 60.128 817.791 57.67 816.474 55.6509C815.245 53.6318 813.402 52.1395 810.944 51.1738C808.486 50.1204 805.457 49.5937 801.858 49.5937C798.434 49.5937 795.449 50.1643 792.904 51.3055C790.446 52.3589 788.514 53.8952 787.11 55.9143C785.705 57.9333 784.915 60.3475 784.74 63.1566Z" fill="#68C6AC"/>
<path d="M704.988 105.03L675.228 33.9231H701.432L713.284 66.0528L719.736 85.9363H720.921L727.373 66.0528L739.224 33.9231H765.428L735.669 105.03H704.988Z" fill="#68C6AC"/>
<path d="M638.964 106.347C630.01 106.347 622.329 104.811 615.921 101.739C609.512 98.666 604.596 94.4084 601.173 88.9657C597.749 83.523 596.037 77.2024 596.037 70.0039C596.037 62.1032 597.793 55.3876 601.304 49.857C604.904 44.3265 609.951 40.1128 616.447 37.2158C623.031 34.2311 630.669 32.7388 639.359 32.7388C649.279 32.7388 657.531 34.5384 664.115 38.1376C670.787 41.649 675.615 46.609 678.6 53.0173C681.585 59.4257 682.594 66.9314 681.628 75.5344H622.9C623.075 78.3436 623.865 80.7138 625.27 82.6451C626.762 84.5764 628.825 86.0688 631.459 87.1222C634.092 88.0878 637.077 88.5707 640.413 88.5707C644.188 88.5707 647.48 87.9562 650.289 86.7271C653.186 85.4104 655.029 83.7863 655.819 81.855H681.102C680.136 87.0344 677.766 91.4676 673.991 95.1546C670.216 98.7538 665.3 101.519 659.243 103.45C653.274 105.382 646.514 106.347 638.964 106.347ZM622.241 63.1566L621.451 61.8398H657.004L655.951 63.0249C655.951 60.128 655.293 57.67 653.976 55.6509C652.747 53.6318 650.903 52.1395 648.445 51.1738C645.987 50.1204 642.959 49.5937 639.359 49.5937C635.936 49.5937 632.951 50.1643 630.405 51.3055C627.947 52.3589 626.016 53.8952 624.611 55.9143C623.207 57.9333 622.417 60.3475 622.241 63.1566Z" fill="#68C6AC"/>
<path d="M567.799 105.03V33.9238H593.477V105.03H567.799ZM580.704 27.2082C575.963 27.2082 572.452 26.2864 570.17 24.4429C567.887 22.5116 566.746 20.0536 566.746 17.0689C566.746 13.6452 568.019 11.1433 570.565 9.56318C573.11 7.89525 576.49 7.06128 580.704 7.06128C585.444 7.06128 588.912 7.98303 591.106 9.82653C593.389 11.67 594.53 14.0842 594.53 17.0689C594.53 20.4925 593.257 23.0383 590.711 24.7063C588.253 26.3742 584.918 27.2082 580.704 27.2082Z" fill="#68C6AC"/>
<path d="M526.641 106.347C520.496 106.347 515.009 105.821 510.181 104.767C505.44 103.626 501.446 102.046 498.198 100.027C494.95 97.9199 492.404 95.3741 490.561 92.3894C488.805 89.4047 487.752 86.0688 487.4 82.3818H512.551C512.727 84.3131 513.385 85.9372 514.526 87.254C515.667 88.5707 517.335 89.5803 519.53 90.2826C521.725 90.8971 524.358 91.2043 527.431 91.2043C531.645 91.2043 534.849 90.6776 537.043 89.6242C539.326 88.483 540.467 86.8589 540.467 84.752C540.467 82.9963 539.984 81.7234 539.019 80.9334C538.141 80.0555 536.604 79.441 534.41 79.0899C532.303 78.6509 529.274 78.2559 525.324 77.9047C516.633 77.0269 509.698 75.8418 504.519 74.3494C499.427 72.7693 495.696 70.5746 493.326 67.7655C490.956 64.8685 489.771 61.0059 489.771 56.1777C489.771 51.4373 491.219 47.3113 494.116 43.7999C497.101 40.2884 501.358 37.5671 506.889 35.6358C512.419 33.6167 519.135 32.6072 527.036 32.6072C533.971 32.6072 540.028 33.485 545.207 35.2408C550.475 36.9965 554.688 39.5862 557.849 43.0098C561.009 46.4335 562.852 50.6033 563.379 55.5193H539.15C538.887 53.7636 538.228 52.3151 537.175 51.1739C536.122 50.0327 534.717 49.1987 532.961 48.672C531.293 48.0575 529.274 47.7503 526.904 47.7503C523.217 47.7503 520.232 48.277 517.95 49.3304C515.755 50.296 514.658 51.8762 514.658 54.0708C514.658 55.5632 515.185 56.7483 516.238 57.6262C517.292 58.4163 519.003 59.0308 521.374 59.4697C523.744 59.8208 526.86 60.172 530.723 60.5231C539.414 61.2254 546.305 62.3666 551.396 63.9468C556.488 65.5269 560.131 67.8094 562.326 70.7941C564.52 73.7788 565.618 77.8609 565.618 83.0402C565.618 87.7807 564.213 91.9066 561.404 95.418C558.595 98.8417 554.337 101.519 548.631 103.45C542.925 105.382 535.595 106.347 526.641 106.347Z" fill="#68C6AC"/>
<path d="M404.272 105.031V33.924H429.028L429.95 45.2484H431.135C433.33 41.298 436.753 38.2255 441.406 36.0308C446.146 33.7484 451.062 32.6072 456.154 32.6072C460.807 32.6072 464.976 33.1778 468.663 34.319C472.438 35.4602 475.686 37.3476 478.408 39.9812C481.129 42.527 483.236 45.9506 484.728 50.2522C486.221 54.4659 486.967 59.6891 486.967 65.922V105.031H461.289V70.5307C461.289 66.6681 460.851 63.3762 459.973 60.6548C459.183 57.8456 457.734 55.6949 455.627 54.2025C453.608 52.6224 450.755 51.8323 447.068 51.8323C443.557 51.8323 440.528 52.6224 437.982 54.2025C435.436 55.6949 433.461 57.8018 432.057 60.5231C430.652 63.1567 429.95 66.1853 429.95 69.609V105.031H404.272Z" fill="#68C6AC"/>
<path d="M358.846 106.347C349.892 106.347 342.211 104.811 335.802 101.739C329.394 98.666 324.478 94.4084 321.054 88.9657C317.631 83.523 315.919 77.2024 315.919 70.0039C315.919 62.1032 317.675 55.3876 321.186 49.857C324.785 44.3265 329.833 40.1128 336.329 37.2158C342.913 34.2311 350.551 32.7388 359.241 32.7388C369.161 32.7388 377.413 34.5384 383.997 38.1376C390.669 41.649 395.497 46.609 398.482 53.0173C401.466 59.4257 402.476 66.9314 401.51 75.5344H342.781C342.957 78.3436 343.747 80.7138 345.152 82.6451C346.644 84.5764 348.707 86.0688 351.341 87.1222C353.974 88.0878 356.959 88.5707 360.295 88.5707C364.07 88.5707 367.362 87.9562 370.171 86.7271C373.068 85.4104 374.911 83.7863 375.701 81.855H400.984C400.018 87.0344 397.648 91.4676 393.873 95.1546C390.098 98.7538 385.182 101.519 379.125 103.45C373.155 105.382 366.396 106.347 358.846 106.347ZM342.123 63.1566L341.333 61.8398H376.886L375.833 63.0249C375.833 60.128 375.174 57.67 373.858 55.6509C372.629 53.6318 370.785 52.1395 368.327 51.1738C365.869 50.1204 362.841 49.5937 359.241 49.5937C355.818 49.5937 352.833 50.1643 350.287 51.3055C347.829 52.3589 345.898 53.8952 344.493 55.9143C343.089 57.9333 342.299 60.3475 342.123 63.1566Z" fill="#68C6AC"/>
<path d="M229.702 105.031V9.03687H279.74C288.869 9.03687 296.243 10.3537 301.862 12.9872C307.568 15.6208 311.738 19.3078 314.371 24.0483C317.005 28.7887 318.322 34.3631 318.322 40.7715C318.322 48.2333 316.698 54.3344 313.449 59.0749C310.289 63.7275 305.812 67.1512 300.018 69.3458C294.312 71.5405 287.553 72.6378 279.74 72.6378H254.194V54.0711H276.843C282.022 54.0711 285.753 53.0176 288.035 50.9108C290.406 48.7161 291.591 45.6436 291.591 41.6932C291.591 37.1284 290.23 33.9681 287.509 32.2124C284.787 30.3689 281.232 29.4471 276.843 29.4471H250.77L256.169 24.0483V105.031H229.702Z" fill="#68C6AC"/>
</svg>
