<svg width="21" height="23" viewBox="0 0 21 23" fill="none" xmlns="http://www.w3.org/2000/svg">
<mask id="mask0_2408_23632" style="mask-type:alpha" maskUnits="userSpaceOnUse" x="0" y="0" width="21" height="23">
<path d="M18.958 6.18064C19.4994 5.8609 20.1834 6.25117 20.1836 6.87986C20.1836 8.1146 19.5242 9.25596 18.4541 9.87205L13.7744 12.5664C13.7132 12.6016 13.6749 12.6667 13.6748 12.7373C13.6748 12.8902 13.8408 12.9855 13.9727 12.9082L16.5625 11.3847C16.7684 11.264 17.0283 11.4126 17.0283 11.6513V12.914C17.0283 14.1941 16.3302 15.3724 15.208 15.9883L11.7422 17.8906C11.6774 17.9262 11.6368 17.9944 11.6367 18.0683C11.6367 18.2218 11.8005 18.3197 11.9355 18.247L13.7373 17.2734C13.8887 17.1916 14.073 17.2996 14.0762 17.4717L14.0986 18.6836C14.1211 19.926 13.4414 21.0755 12.3418 21.6543L11.7119 21.9853C11.1102 22.3017 10.3878 21.8654 10.3877 21.1855V11.2422L18.958 6.18064ZM0 6.80564C0 6.24951 0.60128 5.90055 1.08398 6.17674L9.59082 11.0449C9.81592 11.1739 9.95503 11.4134 9.95508 11.6728V16.2607C9.95482 16.4838 9.71294 16.623 9.51953 16.5117L2.83008 12.6601C2.70925 12.5906 2.55783 12.678 2.55762 12.8174C2.55762 12.8821 2.59242 12.9422 2.64844 12.9746L8.62598 16.4209C9.44823 16.8949 9.95508 17.7716 9.95508 18.7207V21.0244C9.9548 21.7672 9.15034 22.2315 8.50684 21.8603L1.69629 17.9316C0.766208 17.3992 0.00292969 16.3622 0.00292969 15.0078V11.0332L0 11.0312V6.80564ZM8.39551 0.409159C9.32036 -0.11995 10.8719 -0.164194 11.9365 0.443339L18.6406 4.30564C19.2855 4.67717 19.2857 5.60836 18.6406 5.97947L17.5234 6.62205C17.2259 6.79318 16.8593 6.79269 16.5615 6.62205L9.82031 2.75975C9.7496 2.71922 9.66229 2.72013 9.59277 2.76268C9.44819 2.85119 9.45156 3.06215 9.59863 3.14646L15.1768 6.34471C15.812 6.70889 15.8132 7.62463 15.1787 7.99021L14.0498 8.64158C13.7517 8.81336 13.3842 8.81316 13.0859 8.64158L6.43164 4.81346C6.37176 4.77907 6.29815 4.78033 6.23926 4.81639C6.11697 4.8913 6.11975 5.06921 6.24414 5.1406L11.7754 8.31541C12.3998 8.67391 12.4008 9.57435 11.7773 9.93455L10.6055 10.6123C10.3079 10.7842 9.94084 10.784 9.64258 10.6133L1.28906 5.83201C0.806495 5.5558 0.802019 4.86092 1.28125 4.57908L7.06543 1.18064L7.0625 1.17967L8.39551 0.409159Z" fill="#43BD9B"/>
</mask>
<g mask="url(#mask0_2408_23632)">
<path d="M18.958 6.18064C19.4994 5.8609 20.1834 6.25117 20.1836 6.87986C20.1836 8.11459 19.5241 9.25596 18.4541 9.87205L13.7744 12.5664C13.7132 12.6016 13.6749 12.6667 13.6748 12.7373C13.6748 12.8902 13.8408 12.9855 13.9727 12.9082L16.5625 11.3847C16.7684 11.264 17.0283 11.4126 17.0283 11.6513V12.914C17.0283 14.1941 16.3302 15.3724 15.208 15.9883L11.7422 17.8906C11.6774 17.9262 11.6368 17.9944 11.6367 18.0683C11.6367 18.2218 11.8005 18.3197 11.9355 18.247L13.7373 17.2734C13.8886 17.1917 14.0728 17.2988 14.0762 17.4707L14.0986 18.6504C14.121 19.8375 13.4893 20.9411 12.4541 21.5224L11.7334 21.9267C11.1311 22.2645 10.3878 21.8293 10.3877 21.1387V11.5381C10.3877 11.3552 10.4842 11.1859 10.6416 11.0928L18.958 6.18064ZM0 6.80564C0 6.24951 0.60128 5.90055 1.08398 6.17674L9.59082 11.0449C9.81591 11.1739 9.95503 11.4134 9.95508 11.6728V16.2607C9.95481 16.4838 9.71294 16.623 9.51953 16.5117L2.83008 12.6601C2.70925 12.5906 2.55783 12.678 2.55762 12.8174C2.55762 12.8821 2.59242 12.9422 2.64844 12.9746L8.62598 16.4209C9.44822 16.8949 9.95508 17.7716 9.95508 18.7207V21.0244C9.95478 21.7672 9.15033 22.2315 8.50684 21.8603L1.69629 17.9316C0.766213 17.3992 0.00293737 16.3622 0.00292969 15.0078V11.0332L0 11.0312V6.80564ZM8.39551 0.409159C9.32036 -0.11995 10.8719 -0.164193 11.9365 0.443339L18.6406 4.30564C19.2855 4.67717 19.2857 5.60836 18.6406 5.97947L17.5234 6.62205C17.2259 6.79317 16.8593 6.79269 16.5615 6.62205L9.82031 2.75975C9.7496 2.71922 9.66229 2.72013 9.59277 2.76267C9.4482 2.8512 9.45156 3.06215 9.59863 3.14646L15.1768 6.34471C15.812 6.70889 15.8132 7.62463 15.1787 7.99021L14.0498 8.64158C13.7517 8.81336 13.3842 8.81315 13.0859 8.64158L6.43164 4.81346C6.37176 4.77907 6.29815 4.78033 6.23926 4.81639C6.11698 4.8913 6.11976 5.06922 6.24414 5.1406L11.7754 8.31541C12.3998 8.67391 12.4008 9.57435 11.7773 9.93455L10.6055 10.6123C10.3079 10.7841 9.94084 10.784 9.64258 10.6133L1.28906 5.83201C0.806498 5.5558 0.802027 4.86092 1.28125 4.57908L7.06543 1.18064L7.0625 1.17967L8.39551 0.409159Z" fill="black"/>
</g>
</svg>
